<svg width="682" height="885" viewBox="0 0 682 885" fill="none" xmlns="http://www.w3.org/2000/svg">
<path style="mix-blend-mode:multiply" d="M94.2177 297.866H94.0574L22.6016 256.473V173.752H22.7619L94.2177 132.392L165.642 173.656V256.473L94.2177 297.866ZM23.2747 256.152L94.2177 297.128L165.161 256.12V174.105L94.2177 133.098L23.2427 174.105L23.2747 256.152Z" fill="url(#paint0_linear_2801_8739)"/>
<path style="mix-blend-mode:multiply" d="M236.712 297.866L165.16 256.473V173.752L236.712 132.392H236.872L308.296 173.656V256.473L236.712 297.866ZM165.769 256.152L236.712 297.16L307.687 256.12V174.105L236.712 133.098L165.769 174.105V256.152Z" fill="url(#paint1_linear_2801_8739)"/>
<path style="mix-blend-mode:multiply" d="M379.272 297.866H379.111L307.688 256.473V173.752H307.848L379.272 132.392H379.432L450.824 173.656V256.473L379.272 297.866ZM308.297 256.152L379.272 297.16L450.215 256.12V174.105L379.272 133.098L308.297 174.105V256.152Z" fill="url(#paint2_linear_2801_8739)"/>
<path style="mix-blend-mode:multiply" d="M521.799 297.866H521.639L450.215 256.473V173.752H450.375L521.799 132.392H521.959L593.383 173.656V256.473L521.799 297.866ZM450.824 256.152L521.799 297.16L592.742 256.12V174.105L521.799 133.098L450.824 174.105V256.152Z" fill="url(#paint3_linear_2801_8739)"/>
<path style="mix-blend-mode:multiply" d="M681.828 287.02L664.324 297.128L593.349 256.152V174.137L664.324 133.13L681.828 143.237V142.499L664.485 132.488L664.324 132.392L592.9 173.688L592.74 173.752V256.505L664.164 297.769L664.324 297.866L681.828 287.758V287.02Z" fill="url(#paint4_linear_2801_8739)"/>
<path style="mix-blend-mode:multiply" d="M165.447 421.402H165.287L93.8633 380.042V297.321H94.0236L165.447 256.057H165.608L237.031 297.321V380.042H236.871L165.447 421.402ZM94.5044 379.689L165.447 420.696L236.422 379.689V297.674L165.447 256.666L94.5044 297.674V379.689Z" fill="url(#paint5_linear_2801_8739)"/>
<path style="mix-blend-mode:multiply" d="M308.008 421.402H307.848L236.424 380.042V297.321H236.584L308.008 256.057L379.528 297.321V380.042L308.008 421.402ZM237.033 379.689L308.008 420.696L378.951 379.689V297.674L308.008 256.666L237.033 297.674V379.689Z" fill="url(#paint6_linear_2801_8739)"/>
<path style="mix-blend-mode:multiply" d="M450.535 421.402L378.951 380.042V297.321H379.111L450.535 256.057H450.696L522.119 297.321V380.042H521.959L450.535 421.402ZM379.528 379.689L450.503 420.696L521.446 379.689V297.674L450.535 256.666L379.528 297.674V379.689Z" fill="url(#paint7_linear_2801_8739)"/>
<path style="mix-blend-mode:multiply" d="M593.061 421.402H592.9L521.477 380.042V297.321H521.637L593.061 256.057H593.221L664.645 297.321V380.042H664.485L593.061 421.402ZM522.118 379.689L593.061 420.696L664.036 379.689V297.674L593.061 256.666L522.118 297.674V379.689Z" fill="url(#paint8_linear_2801_8739)"/>
<path style="mix-blend-mode:multiply" d="M681.828 389.636L664.613 379.689V297.673L681.828 287.759V287.021L664.164 297.224L664.004 297.321V380.041L681.828 390.341V389.636Z" fill="url(#paint9_linear_2801_8739)"/>
<path style="mix-blend-mode:multiply" d="M379.272 544.97H379.111L307.688 503.706V420.857H307.848L379.272 379.561H379.432L450.824 420.825V503.578L379.272 544.97ZM308.297 503.257L379.272 544.232L450.215 503.257V421.242L379.272 380.234L308.297 421.242V503.257Z" fill="url(#paint10_linear_2801_8739)"/>
<path style="mix-blend-mode:multiply" d="M521.799 544.97H521.639L450.215 503.706V420.857H450.375L521.799 379.561H521.959L593.383 420.825V503.578L521.799 544.97ZM450.824 503.257L521.799 544.232L592.742 503.257V421.242L521.799 380.234L450.824 421.242V503.257Z" fill="url(#paint11_linear_2801_8739)"/>
<path style="mix-blend-mode:multiply" d="M681.828 534.157L664.324 544.264L593.349 503.257V421.242L664.324 380.234L681.828 390.342V389.636L664.485 379.593L664.324 379.528L592.9 420.793L592.74 420.889V503.61L664.164 544.874L664.324 544.97L681.828 534.863V534.157Z" fill="url(#paint12_linear_2801_8739)"/>
<path style="mix-blend-mode:multiply" d="M450.535 668.506L379.111 627.209V544.585H379.272L450.695 503.32H450.856L522.119 544.585V627.306H521.959L450.535 668.506ZM379.56 626.792L450.535 667.8L521.478 626.792V544.777L450.535 503.77L379.528 544.777L379.56 626.792Z" fill="url(#paint13_linear_2801_8739)"/>
<path style="mix-blend-mode:multiply" d="M593.061 668.506H592.9L521.477 627.209V544.585H521.637L593.061 503.32H593.221L664.645 544.585V627.306H664.485L593.061 668.506ZM522.118 626.792L593.061 667.8L664.036 626.792V544.777L593.061 503.77L522.118 544.777V626.792Z" fill="url(#paint14_linear_2801_8739)"/>
<path style="mix-blend-mode:multiply" d="M681.828 636.739L664.613 626.792V544.777L681.828 534.862V534.156L664.164 544.328L664.004 544.424V627.145L681.828 637.445V636.739Z" fill="url(#paint15_linear_2801_8739)"/>
<path style="mix-blend-mode:multiply" d="M521.799 792.073H521.639L450.215 750.809V667.992H450.375L521.799 626.728H521.959L593.383 668.024V750.745L521.799 792.073ZM450.824 750.36L521.799 791.367L592.742 750.36V668.345L521.799 627.337L450.824 668.345V750.36Z" fill="url(#paint16_linear_2801_8739)"/>
<path style="mix-blend-mode:multiply" d="M681.828 781.26L664.324 791.368L593.349 750.36V668.345L664.324 627.338L681.828 637.445V636.739L664.485 626.696L664.324 626.632L592.9 667.896L592.74 667.992V750.713L664.164 791.978L664.324 792.074L681.828 781.966V781.26Z" fill="url(#paint17_linear_2801_8739)"/>
<path style="mix-blend-mode:multiply" d="M681.828 883.844L664.613 873.897V791.882L681.828 781.967V781.261L664.164 791.465L664.004 791.529V874.282L681.828 884.55V883.844Z" fill="url(#paint18_linear_2801_8739)"/>
<path style="mix-blend-mode:multiply" d="M357.44 0V70.1748L266.173 122.926L174.906 70.1748V0H171.668V72.0359L266.173 126.648L360.646 72.0359V0H357.44Z" fill="url(#paint19_linear_2801_8739)"/>
<path style="mix-blend-mode:multiply" d="M543.18 0V70.1748L451.913 122.926L360.645 70.1748V0H357.439V72.0359L451.913 126.648L546.418 72.0359V0H543.18Z" fill="url(#paint20_linear_2801_8739)"/>
<path style="mix-blend-mode:multiply" d="M546.417 70.1748V0H543.18V72.0359L637.685 126.648L681.828 101.139V97.4169L637.685 122.926L546.417 70.1748Z" fill="url(#paint21_linear_2801_8739)"/>
<path style="mix-blend-mode:multiply" d="M359.043 287.661L264.57 233.113V124.016L359.043 69.4678L453.548 124.016V233.113L359.043 287.661ZM267.776 231.188L359.043 283.939L450.311 231.188V125.717L359.043 72.9011L267.776 125.717V231.188Z" fill="url(#paint22_linear_2801_8739)"/>
<path style="mix-blend-mode:multiply" d="M544.816 287.661L450.311 233.113V124.016L544.816 69.4678L639.192 123.856V232.952L544.816 287.661ZM453.548 231.188L544.816 283.939L635.987 231.188V125.717L544.816 72.9011L453.548 125.717V231.188Z" fill="url(#paint23_linear_2801_8739)"/>
<path style="mix-blend-mode:multiply" d="M681.828 255.769L639.288 231.222V125.719L681.828 101.14V97.418L636.082 123.858V233.083L681.828 259.523V255.769Z" fill="url(#paint24_linear_2801_8739)"/>
<path style="mix-blend-mode:multiply" d="M451.945 448.708L357.439 394.16V285.063L451.945 230.515L546.418 285.063V394.16L451.945 448.708ZM360.677 392.234L451.945 445.114L543.212 392.363V286.732L451.945 234.012L360.677 286.732V392.234Z" fill="url(#paint25_linear_2801_8739)"/>
<path style="mix-blend-mode:multiply" d="M681.828 419.477L637.685 444.986L546.417 392.234V286.732L637.685 234.012L681.828 259.522V255.767L637.685 230.29L543.18 284.87V394.096L637.685 448.708L681.828 423.199V419.477Z" fill="url(#paint26_linear_2801_8739)"/>
<path style="mix-blend-mode:multiply" d="M681.828 577.826L639.288 553.247V447.777L681.828 423.198V419.476L636.082 445.916V555.108L681.828 581.548V577.826Z" fill="url(#paint27_linear_2801_8739)"/>
<path style="mix-blend-mode:multiply" d="M22.9217 164.094C20.9752 164.094 19.0724 164.671 17.454 165.754C15.8355 166.836 14.5741 168.375 13.8292 170.175C13.0843 171.975 12.8894 173.955 13.2692 175.866C13.6489 177.777 14.5863 179.532 15.9626 180.91C17.339 182.288 19.0926 183.226 21.0017 183.606C22.9108 183.986 24.8896 183.791 26.6879 183.045C28.4863 182.3 30.0233 181.037 31.1047 179.417C32.1861 177.797 32.7633 175.893 32.7633 173.945C32.7549 171.335 31.7153 168.834 29.8714 166.988C28.0276 165.143 25.5292 164.102 22.9217 164.094V164.094Z" fill="url(#paint28_linear_2801_8739)"/>
<path style="mix-blend-mode:multiply" d="M22.9206 262.475C24.138 262.475 25.328 262.114 26.3402 261.437C27.3524 260.76 28.1413 259.797 28.6071 258.672C29.073 257.546 29.1949 256.307 28.9574 255.112C28.7199 253.917 28.1337 252.819 27.2729 251.958C26.4121 251.096 25.3154 250.509 24.1214 250.272C22.9275 250.034 21.6899 250.156 20.5652 250.622C19.4406 251.089 18.4793 251.878 17.8029 252.891C17.1266 253.904 16.7656 255.096 16.7656 256.314C16.7656 257.123 16.9248 257.924 17.2341 258.672C17.5435 259.419 17.9969 260.098 18.5684 260.67C19.14 261.242 19.8185 261.696 20.5652 262.006C21.312 262.315 22.1123 262.475 22.9206 262.475V262.475Z" fill="url(#paint29_linear_2801_8739)"/>
<path style="mix-blend-mode:multiply" d="M94.2168 303.033C95.3136 303.026 96.384 302.695 97.2925 302.079C98.2009 301.464 98.9067 300.593 99.3206 299.576C99.7345 298.56 99.8379 297.443 99.6177 296.367C99.3975 295.292 98.8636 294.306 98.0835 293.534C97.3034 292.762 96.3122 292.239 95.2352 292.031C94.1581 291.823 93.0437 291.94 92.0327 292.366C91.0218 292.792 90.1598 293.508 89.5556 294.424C88.9515 295.341 88.6324 296.416 88.6388 297.514C88.643 298.243 88.7906 298.964 89.0732 299.636C89.3558 300.308 89.7678 300.917 90.2858 301.43C90.8038 301.942 91.4175 302.347 92.092 302.623C92.7665 302.898 93.4885 303.037 94.2168 303.033V303.033Z" fill="url(#paint30_linear_2801_8739)"/>
<path style="mix-blend-mode:multiply" d="M94.1851 135.601C95.7609 135.601 97.0382 134.323 97.0382 132.745C97.0382 131.168 95.7609 129.89 94.1851 129.89C92.6094 129.89 91.332 131.168 91.332 132.745C91.332 134.323 92.6094 135.601 94.1851 135.601Z" fill="url(#paint31_linear_2801_8739)"/>
<path style="mix-blend-mode:multiply" d="M165.449 179.594C166.565 179.594 167.655 179.262 168.583 178.642C169.511 178.021 170.234 177.139 170.661 176.107C171.088 175.075 171.2 173.94 170.982 172.844C170.765 171.749 170.227 170.743 169.438 169.953C168.649 169.163 167.644 168.625 166.549 168.407C165.455 168.189 164.321 168.301 163.29 168.729C162.259 169.156 161.377 169.88 160.757 170.809C160.137 171.737 159.807 172.829 159.807 173.946C159.807 175.444 160.401 176.88 161.459 177.939C162.517 178.999 163.952 179.594 165.449 179.594V179.594Z" fill="url(#paint32_linear_2801_8739)"/>
<path style="mix-blend-mode:multiply" d="M165.449 246.397C163.49 246.397 161.574 246.979 159.945 248.068C158.316 249.158 157.047 250.706 156.297 252.518C155.547 254.33 155.351 256.323 155.733 258.247C156.116 260.17 157.059 261.937 158.444 263.323C159.83 264.71 161.595 265.654 163.516 266.037C165.438 266.419 167.429 266.223 169.239 265.473C171.049 264.722 172.597 263.451 173.685 261.821C174.773 260.19 175.354 258.273 175.354 256.312C175.354 253.683 174.311 251.161 172.453 249.301C170.595 247.442 168.076 246.397 165.449 246.397Z" fill="url(#paint33_linear_2801_8739)"/>
<path style="mix-blend-mode:multiply" d="M236.71 137.077C237.535 137.077 238.34 136.832 239.026 136.374C239.711 135.916 240.245 135.264 240.561 134.502C240.876 133.74 240.959 132.901 240.798 132.092C240.637 131.283 240.24 130.54 239.657 129.956C239.074 129.373 238.332 128.975 237.523 128.815C236.715 128.654 235.877 128.736 235.116 129.052C234.354 129.368 233.703 129.902 233.245 130.588C232.787 131.274 232.543 132.081 232.543 132.906C232.551 134.009 232.993 135.066 233.773 135.846C234.553 136.626 235.608 137.069 236.71 137.077Z" fill="url(#paint34_linear_2801_8739)"/>
<path style="mix-blend-mode:multiply" d="M308.006 181.646C309.528 181.646 311.016 181.194 312.281 180.348C313.546 179.502 314.532 178.299 315.114 176.892C315.697 175.485 315.849 173.937 315.552 172.443C315.255 170.949 314.523 169.577 313.447 168.5C312.371 167.423 311 166.689 309.507 166.392C308.015 166.095 306.468 166.247 305.062 166.83C303.656 167.413 302.454 168.4 301.609 169.667C300.764 170.933 300.312 172.422 300.312 173.945C300.312 175.987 301.123 177.946 302.566 179.39C304.009 180.835 305.966 181.646 308.006 181.646V181.646Z" fill="url(#paint35_linear_2801_8739)"/>
<path style="mix-blend-mode:multiply" d="M307.975 265.49C313.039 265.49 317.144 261.381 317.144 256.313C317.144 251.244 313.039 247.136 307.975 247.136C302.911 247.136 298.807 251.244 298.807 256.313C298.807 261.381 302.911 265.49 307.975 265.49Z" fill="url(#paint36_linear_2801_8739)"/>
<path style="mix-blend-mode:multiply" d="M379.27 137.559C380.221 137.559 381.15 137.277 381.941 136.748C382.732 136.219 383.348 135.467 383.712 134.588C384.076 133.708 384.171 132.74 383.986 131.807C383.8 130.873 383.342 130.015 382.67 129.342C381.997 128.669 381.141 128.211 380.208 128.025C379.275 127.839 378.308 127.935 377.429 128.299C376.551 128.663 375.8 129.28 375.271 130.072C374.743 130.863 374.461 131.794 374.461 132.746C374.461 134.022 374.968 135.246 375.869 136.149C376.771 137.052 377.994 137.559 379.27 137.559Z" fill="url(#paint37_linear_2801_8739)"/>
<path style="mix-blend-mode:multiply" d="M450.533 179.465C451.624 179.465 452.69 179.141 453.597 178.535C454.503 177.928 455.21 177.066 455.627 176.058C456.045 175.049 456.154 173.94 455.941 172.869C455.728 171.798 455.203 170.815 454.432 170.043C453.661 169.271 452.679 168.746 451.609 168.533C450.54 168.32 449.431 168.429 448.423 168.847C447.416 169.265 446.555 169.972 445.949 170.88C445.343 171.787 445.02 172.854 445.02 173.946C445.02 174.671 445.162 175.388 445.439 176.058C445.716 176.727 446.123 177.336 446.635 177.848C447.147 178.361 447.754 178.767 448.423 179.045C449.092 179.322 449.809 179.465 450.533 179.465V179.465Z" fill="url(#paint38_linear_2801_8739)"/>
<path style="mix-blend-mode:multiply" d="M450.502 260.26C452.679 260.26 454.445 258.493 454.445 256.313C454.445 254.133 452.679 252.366 450.502 252.366C448.324 252.366 446.559 254.133 446.559 256.313C446.559 258.493 448.324 260.26 450.502 260.26Z" fill="url(#paint39_linear_2801_8739)"/>
<path style="mix-blend-mode:multiply" d="M521.799 136.467C522.534 136.467 523.253 136.248 523.865 135.839C524.476 135.43 524.953 134.849 525.234 134.169C525.516 133.489 525.589 132.74 525.446 132.018C525.302 131.296 524.948 130.633 524.428 130.113C523.908 129.592 523.245 129.238 522.524 129.094C521.803 128.95 521.055 129.024 520.376 129.306C519.696 129.588 519.115 130.065 518.707 130.677C518.298 131.289 518.08 132.008 518.08 132.745C518.08 133.732 518.472 134.678 519.169 135.377C519.867 136.075 520.812 136.467 521.799 136.467V136.467Z" fill="url(#paint40_linear_2801_8739)"/>
<path style="mix-blend-mode:multiply" d="M593.061 179.784C594.215 179.784 595.343 179.442 596.302 178.8C597.262 178.158 598.01 177.246 598.451 176.179C598.893 175.112 599.008 173.938 598.783 172.805C598.558 171.672 598.003 170.632 597.187 169.815C596.371 168.998 595.331 168.442 594.199 168.217C593.067 167.991 591.894 168.107 590.828 168.549C589.762 168.991 588.851 169.74 588.21 170.7C587.569 171.66 587.227 172.789 587.227 173.944C587.227 175.493 587.841 176.979 588.935 178.074C590.03 179.169 591.514 179.784 593.061 179.784V179.784Z" fill="url(#paint41_linear_2801_8739)"/>
<path style="mix-blend-mode:multiply" d="M593.062 262.955C596.727 262.955 599.697 259.981 599.697 256.313C599.697 252.645 596.727 249.671 593.062 249.671C589.397 249.671 586.426 252.645 586.426 256.313C586.426 259.981 589.397 262.955 593.062 262.955Z" fill="url(#paint42_linear_2801_8739)"/>
<path style="mix-blend-mode:multiply" d="M664.326 138.329C665.429 138.329 666.508 138.002 667.425 137.389C668.342 136.775 669.057 135.903 669.479 134.883C669.901 133.863 670.012 132.74 669.797 131.657C669.582 130.574 669.05 129.579 668.27 128.798C667.49 128.018 666.496 127.486 665.414 127.27C664.332 127.055 663.211 127.166 662.191 127.588C661.172 128.011 660.301 128.726 659.688 129.644C659.075 130.563 658.748 131.642 658.748 132.746C658.748 133.479 658.892 134.205 659.173 134.883C659.453 135.56 659.864 136.176 660.382 136.694C660.9 137.213 661.515 137.624 662.191 137.904C662.868 138.185 663.593 138.329 664.326 138.329V138.329Z" fill="url(#paint43_linear_2801_8739)"/>
<path style="mix-blend-mode:multiply" d="M94.2166 387.357C95.6876 387.357 97.1255 386.921 98.3486 386.103C99.5717 385.285 100.525 384.122 101.088 382.762C101.651 381.402 101.798 379.905 101.511 378.461C101.224 377.017 100.516 375.69 99.4756 374.649C98.4355 373.608 97.1103 372.899 95.6676 372.612C94.2249 372.325 92.7295 372.472 91.3705 373.035C90.0115 373.599 88.8499 374.553 88.0327 375.777C87.2155 377.001 86.7793 378.441 86.7793 379.913C86.7793 381.887 87.5629 383.781 88.9577 385.177C90.3524 386.573 92.2441 387.357 94.2166 387.357V387.357Z" fill="url(#paint44_linear_2801_8739)"/>
<path style="mix-blend-mode:multiply" d="M236.711 293.694C235.957 293.694 235.219 293.918 234.592 294.338C233.965 294.758 233.476 295.354 233.187 296.052C232.898 296.749 232.823 297.517 232.97 298.258C233.117 298.998 233.48 299.679 234.014 300.213C234.547 300.747 235.227 301.111 235.967 301.258C236.707 301.405 237.474 301.33 238.171 301.041C238.868 300.752 239.464 300.262 239.883 299.634C240.302 299.006 240.526 298.268 240.526 297.513C240.53 297.01 240.435 296.512 240.244 296.047C240.054 295.581 239.773 295.159 239.418 294.803C239.063 294.448 238.641 294.167 238.176 293.976C237.711 293.786 237.214 293.69 236.711 293.694V293.694Z" fill="url(#paint45_linear_2801_8739)"/>
<path style="mix-blend-mode:multiply" d="M236.711 386.907C238.106 386.907 239.469 386.493 240.629 385.718C241.789 384.942 242.693 383.84 243.227 382.55C243.761 381.26 243.9 379.84 243.628 378.471C243.356 377.102 242.684 375.844 241.698 374.857C240.712 373.869 239.455 373.197 238.087 372.925C236.719 372.652 235.301 372.792 234.012 373.326C232.723 373.861 231.622 374.765 230.847 375.926C230.072 377.087 229.658 378.452 229.658 379.848C229.654 380.776 229.834 381.696 230.186 382.555C230.539 383.413 231.059 384.193 231.714 384.849C232.37 385.506 233.149 386.026 234.007 386.379C234.865 386.732 235.784 386.912 236.711 386.907V386.907Z" fill="url(#paint46_linear_2801_8739)"/>
<path style="mix-blend-mode:multiply" d="M307.975 425.508C310.436 425.508 312.432 423.511 312.432 421.048C312.432 418.585 310.436 416.588 307.975 416.588C305.515 416.588 303.52 418.585 303.52 421.048C303.52 423.511 305.515 425.508 307.975 425.508Z" fill="url(#paint47_linear_2801_8739)"/>
<path style="mix-blend-mode:multiply" d="M379.27 287.085C377.21 287.085 375.195 287.697 373.482 288.842C371.769 289.988 370.433 291.617 369.645 293.523C368.856 295.428 368.65 297.525 369.052 299.548C369.454 301.571 370.446 303.429 371.903 304.887C373.36 306.346 375.217 307.339 377.238 307.741C379.259 308.144 381.353 307.937 383.257 307.148C385.161 306.359 386.788 305.022 387.933 303.307C389.078 301.592 389.689 299.576 389.689 297.513C389.693 296.143 389.426 294.785 388.904 293.518C388.382 292.25 387.615 291.099 386.647 290.13C385.678 289.161 384.528 288.393 383.262 287.87C381.996 287.348 380.64 287.081 379.27 287.085V287.085Z" fill="url(#paint48_linear_2801_8739)"/>
<path style="mix-blend-mode:multiply" d="M521.798 305.214C523.331 305.233 524.835 304.795 526.119 303.955C527.403 303.116 528.408 301.913 529.007 300.5C529.605 299.087 529.77 297.527 529.48 296.02C529.191 294.513 528.459 293.126 527.38 292.036C526.3 290.946 524.92 290.202 523.417 289.9C521.914 289.597 520.354 289.749 518.938 290.337C517.521 290.924 516.311 291.92 515.461 293.198C514.612 294.476 514.162 295.978 514.168 297.513C514.168 299.544 514.97 301.493 516.399 302.935C517.828 304.378 519.768 305.197 521.798 305.214V305.214Z" fill="url(#paint49_linear_2801_8739)"/>
<path style="mix-blend-mode:multiply" d="M593.061 428.75C594.583 428.75 596.07 428.298 597.335 427.452C598.601 426.606 599.587 425.403 600.169 423.996C600.751 422.588 600.904 421.04 600.607 419.546C600.31 418.052 599.577 416.68 598.501 415.603C597.425 414.526 596.054 413.793 594.562 413.496C593.07 413.198 591.523 413.351 590.117 413.934C588.711 414.517 587.509 415.504 586.664 416.77C585.819 418.037 585.367 419.526 585.367 421.049C585.363 422.061 585.559 423.064 585.944 424.001C586.329 424.937 586.896 425.788 587.611 426.503C588.327 427.219 589.176 427.787 590.112 428.172C591.047 428.558 592.049 428.754 593.061 428.75V428.75Z" fill="url(#paint50_linear_2801_8739)"/>
<path style="mix-blend-mode:multiply" d="M521.799 388.963C523.601 388.969 525.364 388.44 526.866 387.443C528.367 386.445 529.539 385.024 530.233 383.36C530.927 381.695 531.112 379.862 530.764 378.092C530.416 376.322 529.552 374.695 528.28 373.418C527.008 372.14 525.386 371.269 523.619 370.915C521.852 370.561 520.02 370.739 518.354 371.428C516.689 372.117 515.265 373.285 514.263 374.784C513.261 376.283 512.727 378.046 512.727 379.85C512.727 382.261 513.681 384.574 515.382 386.282C517.082 387.99 519.39 388.954 521.799 388.963V388.963Z" fill="url(#paint51_linear_2801_8739)"/>
<path style="mix-blend-mode:multiply" d="M664.325 305.76C665.963 305.766 667.567 305.286 668.932 304.378C670.297 303.471 671.362 302.178 671.992 300.664C672.622 299.15 672.788 297.483 672.47 295.874C672.152 294.266 671.364 292.788 670.205 291.628C669.046 290.468 667.57 289.679 665.962 289.361C664.355 289.042 662.69 289.209 661.177 289.839C659.664 290.47 658.373 291.536 657.467 292.902C656.56 294.269 656.08 295.874 656.086 297.514C656.094 299.698 656.965 301.791 658.508 303.335C660.052 304.88 662.142 305.752 664.325 305.76V305.76Z" fill="url(#paint52_linear_2801_8739)"/>
<path style="mix-blend-mode:multiply" d="M171.379 421.049C171.379 419.875 171.031 418.728 170.379 417.751C169.728 416.775 168.801 416.014 167.718 415.565C166.634 415.116 165.442 414.998 164.291 415.227C163.141 415.456 162.084 416.022 161.255 416.852C160.425 417.682 159.86 418.74 159.632 419.891C159.403 421.043 159.52 422.236 159.969 423.321C160.418 424.406 161.178 425.333 162.153 425.985C163.129 426.637 164.275 426.986 165.448 426.986C167.021 426.986 168.53 426.36 169.642 425.247C170.754 424.134 171.379 422.624 171.379 421.049V421.049Z" fill="url(#paint53_linear_2801_8739)"/>
<path style="mix-blend-mode:multiply" d="M379.237 384.662C381.875 384.662 384.014 382.521 384.014 379.881C384.014 377.24 381.875 375.1 379.237 375.1C376.599 375.1 374.461 377.24 374.461 379.881C374.461 382.521 376.599 384.662 379.237 384.662Z" fill="url(#paint54_linear_2801_8739)"/>
<path style="mix-blend-mode:multiply" d="M450.535 426.183C451.55 426.183 452.542 425.882 453.385 425.318C454.229 424.754 454.886 423.952 455.274 423.014C455.662 422.076 455.764 421.043 455.566 420.047C455.368 419.052 454.88 418.137 454.162 417.419C453.445 416.701 452.531 416.212 451.536 416.014C450.541 415.816 449.51 415.917 448.573 416.306C447.635 416.694 446.834 417.352 446.271 418.197C445.707 419.041 445.406 420.034 445.406 421.049C445.406 422.411 445.947 423.716 446.909 424.679C447.87 425.642 449.175 426.183 450.535 426.183V426.183Z" fill="url(#paint55_linear_2801_8739)"/>
<path style="mix-blend-mode:multiply" d="M664.325 549.686C667.122 549.686 669.39 547.417 669.39 544.617C669.39 541.817 667.122 539.547 664.325 539.547C661.527 539.547 659.26 541.817 659.26 544.617C659.26 547.417 661.527 549.686 664.325 549.686Z" fill="url(#paint56_linear_2801_8739)"/>
<path style="mix-blend-mode:multiply" d="M593.061 496.808C591.755 496.808 590.478 497.195 589.392 497.922C588.306 498.648 587.46 499.68 586.96 500.888C586.46 502.096 586.329 503.425 586.584 504.707C586.839 505.989 587.468 507.167 588.391 508.092C589.315 509.016 590.491 509.646 591.773 509.901C593.054 510.156 594.381 510.025 595.588 509.524C596.795 509.024 597.826 508.177 598.552 507.09C599.277 506.003 599.665 504.725 599.665 503.418C599.665 501.665 598.969 499.983 597.731 498.744C596.492 497.504 594.812 496.808 593.061 496.808Z" fill="url(#paint57_linear_2801_8739)"/>
<path style="mix-blend-mode:multiply" d="M664.325 386.203C667.813 386.203 670.64 383.373 670.64 379.882C670.64 376.391 667.813 373.561 664.325 373.561C660.837 373.561 658.01 376.391 658.01 379.882C658.01 383.373 660.837 386.203 664.325 386.203Z" fill="url(#paint58_linear_2801_8739)"/>
<path style="mix-blend-mode:multiply" d="M308.007 495.779C306.497 495.773 305.019 496.215 303.76 497.051C302.501 497.886 301.518 499.077 300.936 500.471C300.353 501.866 300.198 503.403 300.488 504.886C300.779 506.37 301.503 507.733 302.569 508.805C303.635 509.876 304.994 510.606 306.475 510.904C307.956 511.201 309.492 511.052 310.888 510.475C312.284 509.898 313.477 508.919 314.317 507.662C315.157 506.406 315.605 504.928 315.605 503.416C315.605 501.396 314.806 499.459 313.382 498.027C311.958 496.596 310.025 495.788 308.007 495.779Z" fill="url(#paint59_linear_2801_8739)"/>
<path style="mix-blend-mode:multiply" d="M371.354 544.585C371.354 546.152 371.818 547.685 372.688 548.988C373.558 550.291 374.795 551.307 376.242 551.907C377.688 552.507 379.281 552.664 380.817 552.358C382.352 552.052 383.763 551.297 384.871 550.189C385.978 549.081 386.732 547.668 387.038 546.131C387.343 544.594 387.187 543 386.587 541.552C385.988 540.104 384.973 538.866 383.671 537.995C382.369 537.124 380.838 536.659 379.272 536.659C378.231 536.655 377.199 536.857 376.237 537.254C375.274 537.651 374.399 538.234 373.663 538.971C372.927 539.708 372.344 540.583 371.948 541.547C371.551 542.51 371.349 543.543 371.354 544.585V544.585Z" fill="url(#paint60_linear_2801_8739)"/>
<path style="mix-blend-mode:multiply" d="M450.503 672.935C453.141 672.935 455.28 670.795 455.28 668.154C455.28 665.514 453.141 663.373 450.503 663.373C447.865 663.373 445.727 665.514 445.727 668.154C445.727 670.795 447.865 672.935 450.503 672.935Z" fill="url(#paint61_linear_2801_8739)"/>
<path style="mix-blend-mode:multiply" d="M379.239 633.21C382.673 633.21 385.458 630.423 385.458 626.985C385.458 623.547 382.673 620.76 379.239 620.76C375.804 620.76 373.02 623.547 373.02 626.985C373.02 630.423 375.804 633.21 379.239 633.21Z" fill="url(#paint62_linear_2801_8739)"/>
<path style="mix-blend-mode:multiply" d="M450.503 510.06C454.168 510.06 457.139 507.086 457.139 503.417C457.139 499.749 454.168 496.775 450.503 496.775C446.838 496.775 443.867 499.749 443.867 503.417C443.867 507.086 446.838 510.06 450.503 510.06Z" fill="url(#paint63_linear_2801_8739)"/>
<path style="mix-blend-mode:multiply" d="M521.798 636.419C527.003 636.419 531.223 632.195 531.223 626.985C531.223 621.775 527.003 617.552 521.798 617.552C516.593 617.552 512.373 621.775 512.373 626.985C512.373 632.195 516.593 636.419 521.798 636.419Z" fill="url(#paint64_linear_2801_8739)"/>
<path style="mix-blend-mode:multiply" d="M593.062 673.479C594.114 673.479 595.143 673.167 596.018 672.581C596.893 671.996 597.575 671.164 597.978 670.191C598.381 669.218 598.486 668.147 598.281 667.114C598.076 666.08 597.569 665.131 596.824 664.386C596.08 663.641 595.132 663.134 594.1 662.929C593.068 662.723 591.998 662.828 591.025 663.232C590.053 663.635 589.222 664.317 588.637 665.193C588.052 666.069 587.74 667.099 587.74 668.153C587.74 669.565 588.301 670.92 589.299 671.919C590.297 672.918 591.65 673.479 593.062 673.479V673.479Z" fill="url(#paint65_linear_2801_8739)"/>
<path style="mix-blend-mode:multiply" d="M521.798 553.955C523.652 553.961 525.466 553.416 527.01 552.389C528.554 551.362 529.759 549.899 530.472 548.186C531.184 546.472 531.372 544.586 531.012 542.765C530.652 540.945 529.76 539.272 528.449 537.96C527.138 536.648 525.467 535.755 523.648 535.394C521.829 535.034 519.944 535.222 518.233 535.935C516.521 536.648 515.059 537.854 514.033 539.4C513.007 540.946 512.462 542.761 512.469 544.617C512.469 547.094 513.452 549.469 515.201 551.22C516.951 552.971 519.323 553.955 521.798 553.955V553.955Z" fill="url(#paint66_linear_2801_8739)"/>
<path style="mix-blend-mode:multiply" d="M664.325 631.221C666.662 631.221 668.557 629.325 668.557 626.985C668.557 624.646 666.662 622.75 664.325 622.75C661.988 622.75 660.094 624.646 660.094 626.985C660.094 629.325 661.988 631.221 664.325 631.221Z" fill="url(#paint67_linear_2801_8739)"/>
<path style="mix-blend-mode:multiply" d="M450.535 755.656C451.55 755.656 452.542 755.354 453.385 754.79C454.229 754.226 454.886 753.424 455.274 752.486C455.662 751.548 455.764 750.516 455.566 749.52C455.368 748.524 454.88 747.609 454.162 746.891C453.445 746.173 452.531 745.684 451.536 745.486C450.541 745.288 449.51 745.39 448.573 745.778C447.635 746.167 446.834 746.825 446.271 747.669C445.707 748.514 445.406 749.506 445.406 750.522C445.406 751.883 445.947 753.189 446.909 754.152C447.87 755.115 449.175 755.656 450.535 755.656V755.656Z" fill="url(#paint68_linear_2801_8739)"/>
<path style="mix-blend-mode:multiply" d="M521.798 781.678C519.813 781.678 517.873 782.267 516.223 783.37C514.573 784.474 513.287 786.042 512.527 787.878C511.768 789.713 511.569 791.732 511.956 793.68C512.344 795.629 513.299 797.418 514.703 798.823C516.106 800.227 517.894 801.184 519.84 801.571C521.787 801.959 523.804 801.76 525.637 801C527.471 800.24 529.038 798.952 530.141 797.301C531.243 795.649 531.832 793.707 531.832 791.721C531.832 789.057 530.774 786.503 528.893 784.619C527.011 782.736 524.459 781.678 521.798 781.678Z" fill="url(#paint69_linear_2801_8739)"/>
<path style="mix-blend-mode:multiply" d="M593.061 755.977C594.139 755.977 595.193 755.657 596.089 755.058C596.985 754.458 597.684 753.606 598.096 752.61C598.509 751.613 598.616 750.516 598.406 749.458C598.196 748.4 597.677 747.428 596.915 746.665C596.152 745.902 595.181 745.383 594.124 745.172C593.067 744.962 591.971 745.07 590.976 745.483C589.98 745.895 589.129 746.595 588.53 747.492C587.931 748.389 587.611 749.443 587.611 750.522C587.611 751.969 588.186 753.356 589.208 754.379C590.23 755.402 591.616 755.977 593.061 755.977Z" fill="url(#paint70_linear_2801_8739)"/>
<path style="mix-blend-mode:multiply" d="M664.324 799.872C665.941 799.879 667.523 799.405 668.871 798.511C670.219 797.617 671.272 796.344 671.896 794.851C672.521 793.358 672.689 791.714 672.38 790.125C672.071 788.537 671.298 787.076 670.159 785.927C669.02 784.778 667.567 783.993 665.983 783.671C664.398 783.349 662.754 783.505 661.258 784.118C659.762 784.732 658.481 785.776 657.577 787.118C656.674 788.46 656.188 790.04 656.182 791.658C656.177 792.732 656.385 793.797 656.792 794.792C657.199 795.786 657.797 796.69 658.553 797.453C659.309 798.216 660.208 798.822 661.198 799.237C662.189 799.652 663.251 799.868 664.324 799.872V799.872Z" fill="url(#paint71_linear_2801_8739)"/>
<path style="mix-blend-mode:multiply" d="M664.325 863.18C662.17 863.18 660.062 863.82 658.27 865.018C656.477 866.217 655.08 867.921 654.255 869.914C653.431 871.908 653.215 874.101 653.635 876.218C654.056 878.334 655.094 880.278 656.618 881.804C658.143 883.329 660.085 884.368 662.199 884.789C664.313 885.21 666.505 884.994 668.496 884.169C670.488 883.343 672.19 881.944 673.388 880.15C674.586 878.356 675.225 876.247 675.225 874.089C675.225 871.196 674.077 868.421 672.032 866.375C669.988 864.329 667.216 863.18 664.325 863.18Z" fill="url(#paint72_linear_2801_8739)"/>
<path style="mix-blend-mode:multiply" opacity="0.2" d="M173.975 0V87.149L87.3884 137.205L0.769395 87.149V0H0V87.5982L87.1961 137.975L87.3884 138.071L174.552 87.6945L174.745 87.5982V0H173.975Z" fill="url(#paint73_linear_2801_8739)"/>
<path style="mix-blend-mode:multiply" opacity="0.2" d="M347.952 0V87.149L261.365 137.205L174.746 87.149V0H173.977V87.5982L261.173 137.975L261.365 138.071L348.529 87.6945L348.721 87.5982V0H347.952Z" fill="url(#paint74_linear_2801_8739)"/>
<path style="mix-blend-mode:multiply" opacity="0.2" d="M521.927 0V87.149L435.307 137.205L348.721 87.149V0H347.951V87.5982L435.147 137.975L435.307 138.071L522.504 87.6945L522.696 87.5982V0H521.927Z" fill="url(#paint75_linear_2801_8739)"/>
<path style="mix-blend-mode:multiply" opacity="0.2" d="M522.695 87.149V0H521.926V87.5982L609.09 137.975L609.282 138.071L664.357 106.241V105.375L609.282 137.205L522.695 87.149Z" fill="url(#paint76_linear_2801_8739)"/>
<path style="mix-blend-mode:multiply" opacity="0.2" d="M348.336 288.881L260.916 238.376V137.398H261.108L348.272 87.0205H348.465L435.725 137.398V238.376H435.532L348.336 288.881ZM261.782 237.959L348.336 287.983L434.891 237.959V137.847L348.336 87.7906L261.782 137.847V237.959Z" fill="url(#paint77_linear_2801_8739)"/>
<path style="mix-blend-mode:multiply" opacity="0.2" d="M522.311 288.881H522.119L434.955 238.504V137.398H435.147L522.311 87.0205H522.504L609.668 137.398V238.376H609.507L522.311 288.881ZM435.757 237.959L522.311 287.983L608.866 237.959V137.847L522.311 87.7906L435.757 137.847V237.959Z" fill="url(#paint78_linear_2801_8739)"/>
<path style="mix-blend-mode:multiply" opacity="0.2" d="M664.358 269.566L609.668 237.96V137.847L664.358 106.241V105.375L609.091 137.302L608.898 137.43V238.409L664.358 270.432V269.566Z" fill="url(#paint79_linear_2801_8739)"/>
<path style="mix-blend-mode:multiply" opacity="0.2" d="M435.339 439.692H435.146L347.982 389.315V288.208H348.175L435.339 237.831H435.531L522.695 288.208V389.187H522.503L435.339 439.692ZM348.784 388.77L435.339 438.794L521.894 388.77V288.657L435.339 238.601L348.784 288.657V388.77Z" fill="url(#paint80_linear_2801_8739)"/>
<path style="mix-blend-mode:multiply" opacity="0.2" d="M664.357 406.995L609.282 438.793L522.695 388.769V288.657L609.282 238.601L664.357 270.431V269.565L609.474 237.831L609.282 237.734L522.118 288.111L521.926 288.208V389.186L609.09 439.563L609.282 439.692L664.357 407.861V406.995Z" fill="url(#paint81_linear_2801_8739)"/>
<path style="mix-blend-mode:multiply" opacity="0.2" d="M522.311 590.469H522.119L434.955 540.093V439.018H435.147L522.311 388.641H522.504L609.668 439.018V539.996H609.507L522.311 590.469ZM435.757 539.547L522.311 589.603L608.866 539.547V439.467L522.311 389.411L435.757 439.467V539.547Z" fill="url(#paint82_linear_2801_8739)"/>
<path style="mix-blend-mode:multiply" opacity="0.2" d="M664.358 571.153L609.668 539.58V439.467L664.358 407.861V406.995L609.091 438.922L608.898 439.018V539.997L664.358 572.052V571.153Z" fill="url(#paint83_linear_2801_8739)"/>
<path style="mix-blend-mode:multiply" opacity="0.2" d="M548.437 0V102.455L437.038 166.822L325.638 102.455V0H321.695V104.733L437.038 171.378L552.38 104.733V0H548.437Z" fill="url(#paint84_linear_2801_8739)"/>
<path style="mix-blend-mode:multiply" opacity="0.2" d="M552.381 102.455V0H548.438V104.733L663.78 171.378L664.357 171.057V166.501L663.78 166.822L552.381 102.455Z" fill="url(#paint85_linear_2801_8739)"/>
<path style="mix-blend-mode:multiply" opacity="0.2" d="M664.358 166.501L661.793 167.977V301.267L664.358 302.743V166.501Z" fill="url(#paint86_linear_2801_8739)"/>
<path style="mix-blend-mode:multiply" opacity="0.2" d="M664.358 560.243L550.426 494.4L435.02 561.046V694.336L550.426 760.981L664.358 695.138V560.243ZM550.426 756.361L439.027 692.186V563.324L550.426 498.957L661.825 563.324V692.186L550.426 756.361Z" fill="url(#paint87_linear_2801_8739)"/>
<path style="mix-blend-mode:multiply" opacity="0.2" d="M174.36 95.9731C176.638 95.9731 178.824 95.0671 180.435 93.4544C182.046 91.8417 182.951 89.6544 182.951 87.3737C182.955 86.2417 182.736 85.1201 182.306 84.073C181.877 83.026 181.244 82.0742 180.446 81.2723C179.648 80.4704 178.699 79.8341 177.655 79.3999C176.611 78.9657 175.491 78.7422 174.36 78.7422C173.226 78.738 172.103 78.9584 171.055 79.3906C170.007 79.8229 169.054 80.4585 168.253 81.2609C167.451 82.0632 166.816 83.0165 166.384 84.0656C165.952 85.1147 165.732 86.239 165.736 87.3737C165.736 88.5057 165.96 89.6266 166.393 90.672C166.827 91.7174 167.463 92.6668 168.264 93.4658C169.065 94.2647 170.016 94.8975 171.062 95.3278C172.108 95.758 173.229 95.9773 174.36 95.9731Z" fill="url(#paint88_linear_2801_8739)"/>
<path style="mix-blend-mode:multiply" opacity="0.2" d="M261.365 143.045C264.357 143.045 266.783 140.617 266.783 137.622C266.783 134.627 264.357 132.199 261.365 132.199C258.373 132.199 255.947 134.627 255.947 137.622C255.947 140.617 258.373 143.045 261.365 143.045Z" fill="url(#paint89_linear_2801_8739)"/>
<path style="mix-blend-mode:multiply" opacity="0.2" d="M609.315 147.024C611.172 147.024 612.988 146.472 614.533 145.439C616.078 144.406 617.282 142.938 617.992 141.22C618.703 139.502 618.889 137.612 618.527 135.788C618.165 133.964 617.27 132.289 615.956 130.974C614.643 129.66 612.969 128.764 611.147 128.401C609.325 128.039 607.437 128.225 605.72 128.936C604.004 129.648 602.537 130.853 601.505 132.399C600.473 133.945 599.922 135.763 599.922 137.622C599.922 140.116 600.911 142.507 602.673 144.27C604.434 146.033 606.824 147.024 609.315 147.024V147.024Z" fill="url(#paint90_linear_2801_8739)"/>
<path style="mix-blend-mode:multiply" opacity="0.2" d="M522.311 98.4759C528.436 98.4759 533.402 93.5052 533.402 87.3737C533.402 81.2421 528.436 76.2715 522.311 76.2715C516.185 76.2715 511.219 81.2421 511.219 87.3737C511.219 93.5052 516.185 98.4759 522.311 98.4759Z" fill="url(#paint91_linear_2801_8739)"/>
<path style="mix-blend-mode:multiply" opacity="0.2" d="M94.6015 137.623C94.5952 136.197 94.1668 134.804 93.3704 133.621C92.574 132.438 91.4453 131.517 90.1268 130.976C88.8082 130.434 87.3589 130.296 85.9619 130.578C84.5648 130.86 83.2826 131.551 82.2771 132.561C81.2716 133.572 80.5878 134.859 80.3121 136.258C80.0363 137.658 80.181 139.108 80.7279 140.425C81.2747 141.743 82.1992 142.868 83.3847 143.66C84.5702 144.452 85.9634 144.875 87.3886 144.875C88.3385 144.875 89.2791 144.687 90.1563 144.322C91.0335 143.957 91.8301 143.423 92.5003 142.749C93.1705 142.075 93.7011 141.275 94.0617 140.396C94.4223 139.516 94.6057 138.574 94.6015 137.623V137.623Z" fill="url(#paint92_linear_2801_8739)"/>
<path style="mix-blend-mode:multiply" opacity="0.2" d="M348.334 93.2139C351.557 93.2139 354.169 90.5993 354.169 87.3741C354.169 84.1488 351.557 81.5342 348.334 81.5342C345.112 81.5342 342.5 84.1488 342.5 87.3741C342.5 90.5993 345.112 93.2139 348.334 93.2139Z" fill="url(#paint93_linear_2801_8739)"/>
<path style="mix-blend-mode:multiply" opacity="0.2" d="M435.308 143.879C438.76 143.879 441.559 141.078 441.559 137.622C441.559 134.167 438.76 131.365 435.308 131.365C431.855 131.365 429.057 134.167 429.057 137.622C429.057 141.078 431.855 143.879 435.308 143.879Z" fill="url(#paint94_linear_2801_8739)"/>
<path style="mix-blend-mode:multiply" opacity="0.2" d="M609.314 230.13C607.715 230.124 606.15 230.592 604.817 231.477C603.484 232.362 602.444 233.622 601.827 235.099C601.211 236.576 601.046 238.203 601.354 239.774C601.663 241.344 602.429 242.788 603.558 243.922C604.686 245.056 606.126 245.83 607.694 246.144C609.262 246.459 610.888 246.3 612.366 245.689C613.844 245.078 615.107 244.042 615.996 242.712C616.886 241.381 617.36 239.817 617.36 238.216C617.364 237.156 617.159 236.105 616.757 235.124C616.354 234.143 615.762 233.251 615.015 232.5C614.267 231.749 613.379 231.153 612.4 230.746C611.422 230.339 610.373 230.13 609.314 230.13V230.13Z" fill="url(#paint95_linear_2801_8739)"/>
<path style="mix-blend-mode:multiply" opacity="0.2" d="M261.363 247.49C266.497 247.49 270.66 243.323 270.66 238.184C270.66 233.045 266.497 228.879 261.363 228.879C256.229 228.879 252.066 233.045 252.066 238.184C252.066 243.323 256.229 247.49 261.363 247.49Z" fill="url(#paint96_linear_2801_8739)"/>
<path style="mix-blend-mode:multiply" opacity="0.2" d="M338.688 288.433C338.688 290.337 339.252 292.198 340.308 293.781C341.365 295.364 342.867 296.598 344.624 297.326C346.382 298.055 348.315 298.245 350.181 297.874C352.047 297.503 353.76 296.586 355.105 295.24C356.45 293.893 357.366 292.178 357.737 290.311C358.108 288.444 357.918 286.508 357.19 284.749C356.462 282.99 355.229 281.487 353.648 280.429C352.066 279.371 350.207 278.807 348.305 278.807C345.754 278.807 343.308 279.821 341.504 281.626C339.701 283.431 338.688 285.88 338.688 288.433Z" fill="url(#paint97_linear_2801_8739)"/>
<path style="mix-blend-mode:multiply" opacity="0.2" d="M435.307 445.083C438.529 445.083 441.142 442.468 441.142 439.243C441.142 436.018 438.529 433.403 435.307 433.403C432.085 433.403 429.473 436.018 429.473 439.243C429.473 442.468 432.085 445.083 435.307 445.083Z" fill="url(#paint98_linear_2801_8739)"/>
<path style="mix-blend-mode:multiply" opacity="0.2" d="M348.336 381.356C346.833 381.356 345.364 381.802 344.115 382.638C342.866 383.474 341.892 384.661 341.317 386.051C340.742 387.441 340.591 388.97 340.884 390.445C341.177 391.92 341.901 393.275 342.964 394.338C344.026 395.402 345.38 396.126 346.854 396.42C348.328 396.713 349.855 396.563 351.243 395.987C352.632 395.411 353.818 394.437 354.653 393.186C355.488 391.935 355.934 390.465 355.934 388.961C355.934 386.944 355.133 385.01 353.708 383.584C352.283 382.158 350.351 381.356 348.336 381.356V381.356Z" fill="url(#paint99_linear_2801_8739)"/>
<path style="mix-blend-mode:multiply" opacity="0.2" d="M435.308 246.302C439.787 246.302 443.418 242.667 443.418 238.184C443.418 233.7 439.787 230.065 435.308 230.065C430.828 230.065 427.197 233.7 427.197 238.184C427.197 242.667 430.828 246.302 435.308 246.302Z" fill="url(#paint100_linear_2801_8739)"/>
<path style="mix-blend-mode:multiply" opacity="0.2" d="M522.311 400.481C528.667 400.481 533.82 395.324 533.82 388.962C533.82 382.6 528.667 377.442 522.311 377.442C515.955 377.442 510.803 382.6 510.803 388.962C510.803 395.324 515.955 400.481 522.311 400.481Z" fill="url(#paint101_linear_2801_8739)"/>
<path style="mix-blend-mode:multiply" opacity="0.2" d="M609.314 445.756C610.582 445.756 611.821 445.379 612.876 444.674C613.93 443.969 614.752 442.967 615.237 441.794C615.723 440.622 615.849 439.331 615.602 438.086C615.355 436.842 614.744 435.698 613.847 434.801C612.951 433.903 611.808 433.292 610.565 433.044C609.321 432.797 608.032 432.924 606.86 433.409C605.689 433.895 604.687 434.718 603.983 435.773C603.278 436.828 602.902 438.069 602.902 439.338C602.902 441.04 603.578 442.673 604.78 443.876C605.983 445.08 607.613 445.756 609.314 445.756Z" fill="url(#paint102_linear_2801_8739)"/>
<path style="mix-blend-mode:multiply" opacity="0.2" d="M522.311 299.855C524.571 299.867 526.784 299.208 528.669 297.961C530.554 296.713 532.027 294.934 532.9 292.848C533.774 290.762 534.009 288.463 533.576 286.243C533.143 284.023 532.061 281.981 530.468 280.377C528.874 278.773 526.841 277.679 524.625 277.233C522.41 276.787 520.112 277.009 518.023 277.872C515.934 278.735 514.148 280.199 512.891 282.079C511.634 283.959 510.963 286.17 510.963 288.432C510.963 291.45 512.156 294.346 514.283 296.486C516.409 298.627 519.296 299.838 522.311 299.855Z" fill="url(#paint103_linear_2801_8739)"/>
<path style="mix-blend-mode:multiply" opacity="0.2" d="M435.34 735.472C434.273 735.465 433.229 735.776 432.339 736.365C431.449 736.953 430.754 737.793 430.341 738.777C429.929 739.762 429.817 740.846 430.021 741.894C430.226 742.942 430.736 743.906 431.488 744.663C432.24 745.42 433.199 745.936 434.245 746.147C435.291 746.358 436.375 746.253 437.361 745.846C438.347 745.439 439.19 744.748 439.783 743.861C440.376 742.973 440.693 741.93 440.693 740.862C440.693 739.438 440.13 738.072 439.127 737.062C438.124 736.052 436.762 735.48 435.34 735.472V735.472Z" fill="url(#paint104_linear_2801_8739)"/>
<path style="mix-blend-mode:multiply" opacity="0.2" d="M435.308 546.029C438.76 546.029 441.559 543.227 441.559 539.772C441.559 536.316 438.76 533.515 435.308 533.515C431.855 533.515 429.057 536.316 429.057 539.772C429.057 543.227 431.855 546.029 435.308 546.029Z" fill="url(#paint105_linear_2801_8739)"/>
<path style="mix-blend-mode:multiply" opacity="0.2" d="M522.31 602.31C529.074 602.31 534.556 596.822 534.556 590.052C534.556 583.283 529.074 577.795 522.31 577.795C515.547 577.795 510.064 583.283 510.064 590.052C510.064 596.822 515.547 602.31 522.31 602.31Z" fill="url(#paint106_linear_2801_8739)"/>
<path style="mix-blend-mode:multiply" opacity="0.2" d="M609.316 546.446C610.635 546.446 611.924 546.055 613.021 545.321C614.117 544.588 614.972 543.545 615.477 542.326C615.981 541.106 616.113 539.764 615.856 538.47C615.599 537.175 614.964 535.986 614.031 535.052C613.099 534.119 611.911 533.483 610.617 533.226C609.324 532.968 607.983 533.101 606.765 533.606C605.546 534.111 604.505 534.966 603.772 536.064C603.039 537.161 602.648 538.452 602.648 539.772C602.648 541.542 603.351 543.239 604.601 544.491C605.852 545.743 607.548 546.446 609.316 546.446V546.446Z" fill="url(#paint107_linear_2801_8739)"/>
<path style="mix-blend-mode:multiply" opacity="0.2" d="M442.551 841.392C442.551 839.964 442.128 838.568 441.335 837.381C440.543 836.193 439.416 835.268 438.098 834.721C436.78 834.175 435.33 834.032 433.931 834.311C432.532 834.589 431.246 835.277 430.238 836.286C429.229 837.296 428.542 838.583 428.264 839.983C427.985 841.384 428.128 842.835 428.674 844.154C429.22 845.474 430.144 846.601 431.331 847.394C432.517 848.188 433.911 848.611 435.338 848.611C437.251 848.611 439.085 847.851 440.438 846.497C441.791 845.143 442.551 843.306 442.551 841.392V841.392Z" fill="url(#paint108_linear_2801_8739)"/>
<path style="mix-blend-mode:multiply" opacity="0.2" d="M609.316 750.265C611.181 750.265 613.005 749.711 614.555 748.673C616.106 747.635 617.314 746.159 618.026 744.434C618.738 742.708 618.923 740.81 618.557 738.979C618.191 737.148 617.29 735.467 615.969 734.149C614.647 732.831 612.965 731.935 611.135 731.575C609.304 731.214 607.408 731.406 605.687 732.125C603.965 732.844 602.495 734.058 601.464 735.613C600.432 737.169 599.884 738.996 599.891 740.863C599.891 742.101 600.135 743.326 600.609 744.468C601.083 745.611 601.778 746.649 602.653 747.522C603.529 748.396 604.568 749.088 605.711 749.558C606.855 750.029 608.079 750.269 609.316 750.265V750.265Z" fill="url(#paint109_linear_2801_8739)"/>
<path style="mix-blend-mode:multiply" opacity="0.2" d="M609.315 831.99C607.457 831.99 605.641 832.542 604.096 833.575C602.552 834.608 601.348 836.076 600.637 837.794C599.926 839.512 599.74 841.402 600.102 843.226C600.465 845.05 601.359 846.725 602.673 848.04C603.987 849.354 605.66 850.25 607.482 850.613C609.304 850.975 611.193 850.789 612.909 850.078C614.625 849.366 616.092 848.161 617.124 846.615C618.157 845.069 618.707 843.251 618.707 841.392C618.707 840.157 618.464 838.935 617.992 837.794C617.52 836.653 616.829 835.617 615.956 834.744C615.084 833.871 614.049 833.178 612.909 832.706C611.77 832.233 610.548 831.99 609.315 831.99V831.99Z" fill="url(#paint110_linear_2801_8739)"/>
<defs>
<linearGradient id="paint0_linear_2801_8739" x1="764.377" y1="1250.83" x2="35.5583" y2="126.626" gradientUnits="userSpaceOnUse">
<stop stop-color="#52BBE8"/>
<stop offset="0.2" stop-color="#69C3EB"/>
<stop offset="0.6" stop-color="#A3D8F1"/>
<stop offset="1" stop-color="#E1EFF8"/>
</linearGradient>
<linearGradient id="paint1_linear_2801_8739" x1="67492.1" y1="55536.4" x2="27986.2" y2="2774.26" gradientUnits="userSpaceOnUse">
<stop stop-color="#52BBE8"/>
<stop offset="0.2" stop-color="#69C3EB"/>
<stop offset="0.6" stop-color="#A3D8F1"/>
<stop offset="1" stop-color="#E1EFF8"/>
</linearGradient>
<linearGradient id="paint2_linear_2801_8739" x1="72117.6" y1="52178.9" x2="32613.3" y2="-583.517" gradientUnits="userSpaceOnUse">
<stop stop-color="#52BBE8"/>
<stop offset="0.2" stop-color="#69C3EB"/>
<stop offset="0.6" stop-color="#A3D8F1"/>
<stop offset="1" stop-color="#E1EFF8"/>
</linearGradient>
<linearGradient id="paint3_linear_2801_8739" x1="76761.7" y1="48821.5" x2="37258.4" y2="-3947.48" gradientUnits="userSpaceOnUse">
<stop stop-color="#52BBE8"/>
<stop offset="0.2" stop-color="#69C3EB"/>
<stop offset="0.6" stop-color="#A3D8F1"/>
<stop offset="1" stop-color="#E1EFF8"/>
</linearGradient>
<linearGradient id="paint4_linear_2801_8739" x1="52332" y1="51609.7" x2="11854.2" y2="17962.9" gradientUnits="userSpaceOnUse">
<stop stop-color="#52BBE8"/>
<stop offset="0.2" stop-color="#69C3EB"/>
<stop offset="0.6" stop-color="#A3D8F1"/>
<stop offset="1" stop-color="#E1EFF8"/>
</linearGradient>
<linearGradient id="paint5_linear_2801_8739" x1="62678.4" y1="59175.3" x2="23214.2" y2="6416.26" gradientUnits="userSpaceOnUse">
<stop stop-color="#52BBE8"/>
<stop offset="0.2" stop-color="#69C3EB"/>
<stop offset="0.6" stop-color="#A3D8F1"/>
<stop offset="1" stop-color="#E1EFF8"/>
</linearGradient>
<linearGradient id="paint6_linear_2801_8739" x1="67275" y1="55820.5" x2="27807.5" y2="3079.72" gradientUnits="userSpaceOnUse">
<stop stop-color="#52BBE8"/>
<stop offset="0.2" stop-color="#69C3EB"/>
<stop offset="0.6" stop-color="#A3D8F1"/>
<stop offset="1" stop-color="#E1EFF8"/>
</linearGradient>
<linearGradient id="paint7_linear_2801_8739" x1="71933" y1="52465.6" x2="32469" y2="-291.79" gradientUnits="userSpaceOnUse">
<stop stop-color="#52BBE8"/>
<stop offset="0.2" stop-color="#69C3EB"/>
<stop offset="0.6" stop-color="#A3D8F1"/>
<stop offset="1" stop-color="#E1EFF8"/>
</linearGradient>
<linearGradient id="paint8_linear_2801_8739" x1="76559.5" y1="49112.4" x2="37095.4" y2="-3646.7" gradientUnits="userSpaceOnUse">
<stop stop-color="#52BBE8"/>
<stop offset="0.2" stop-color="#69C3EB"/>
<stop offset="0.6" stop-color="#A3D8F1"/>
<stop offset="1" stop-color="#E1EFF8"/>
</linearGradient>
<linearGradient id="paint9_linear_2801_8739" x1="10815.4" y1="33180.3" x2="-1971.64" y2="29774.4" gradientUnits="userSpaceOnUse">
<stop stop-color="#52BBE8"/>
<stop offset="0.2" stop-color="#69C3EB"/>
<stop offset="0.6" stop-color="#A3D8F1"/>
<stop offset="1" stop-color="#E1EFF8"/>
</linearGradient>
<linearGradient id="paint10_linear_2801_8739" x1="67087.8" y1="56170.6" x2="27603.1" y2="3413.97" gradientUnits="userSpaceOnUse">
<stop stop-color="#52BBE8"/>
<stop offset="0.2" stop-color="#69C3EB"/>
<stop offset="0.6" stop-color="#A3D8F1"/>
<stop offset="1" stop-color="#E1EFF8"/>
</linearGradient>
<linearGradient id="paint11_linear_2801_8739" x1="71730.8" y1="52814.5" x2="32247" y2="49.6144" gradientUnits="userSpaceOnUse">
<stop stop-color="#52BBE8"/>
<stop offset="0.2" stop-color="#69C3EB"/>
<stop offset="0.6" stop-color="#A3D8F1"/>
<stop offset="1" stop-color="#E1EFF8"/>
</linearGradient>
<linearGradient id="paint12_linear_2801_8739" x1="49201.5" y1="55610.7" x2="8730.8" y2="21964.2" gradientUnits="userSpaceOnUse">
<stop stop-color="#52BBE8"/>
<stop offset="0.2" stop-color="#69C3EB"/>
<stop offset="0.6" stop-color="#A3D8F1"/>
<stop offset="1" stop-color="#E1EFF8"/>
</linearGradient>
<linearGradient id="paint13_linear_2801_8739" x1="66827.8" y1="56421.8" x2="27400.4" y2="3721.26" gradientUnits="userSpaceOnUse">
<stop stop-color="#52BBE8"/>
<stop offset="0.2" stop-color="#69C3EB"/>
<stop offset="0.6" stop-color="#A3D8F1"/>
<stop offset="1" stop-color="#E1EFF8"/>
</linearGradient>
<linearGradient id="paint14_linear_2801_8739" x1="71528.6" y1="53071.9" x2="32115.1" y2="326.973" gradientUnits="userSpaceOnUse">
<stop stop-color="#52BBE8"/>
<stop offset="0.2" stop-color="#69C3EB"/>
<stop offset="0.6" stop-color="#A3D8F1"/>
<stop offset="1" stop-color="#E1EFF8"/>
</linearGradient>
<linearGradient id="paint15_linear_2801_8739" x1="10189.1" y1="35768.1" x2="-2597.45" y2="32361.3" gradientUnits="userSpaceOnUse">
<stop stop-color="#52BBE8"/>
<stop offset="0.2" stop-color="#69C3EB"/>
<stop offset="0.6" stop-color="#A3D8F1"/>
<stop offset="1" stop-color="#E1EFF8"/>
</linearGradient>
<linearGradient id="paint16_linear_2801_8739" x1="66699.9" y1="56804.6" x2="27235.7" y2="4045.49" gradientUnits="userSpaceOnUse">
<stop stop-color="#52BBE8"/>
<stop offset="0.2" stop-color="#69C3EB"/>
<stop offset="0.6" stop-color="#A3D8F1"/>
<stop offset="1" stop-color="#E1EFF8"/>
</linearGradient>
<linearGradient id="paint17_linear_2801_8739" x1="46071" y1="59623.2" x2="5600.26" y2="25976.8" gradientUnits="userSpaceOnUse">
<stop stop-color="#52BBE8"/>
<stop offset="0.2" stop-color="#69C3EB"/>
<stop offset="0.6" stop-color="#A3D8F1"/>
<stop offset="1" stop-color="#E1EFF8"/>
</linearGradient>
<linearGradient id="paint18_linear_2801_8739" x1="9562.77" y1="38365" x2="-3223.31" y2="34958.5" gradientUnits="userSpaceOnUse">
<stop stop-color="#52BBE8"/>
<stop offset="0.2" stop-color="#69C3EB"/>
<stop offset="0.6" stop-color="#A3D8F1"/>
<stop offset="1" stop-color="#E1EFF8"/>
</linearGradient>
<linearGradient id="paint19_linear_2801_8739" x1="98905.2" y1="44181.3" x2="75886.8" y2="-8849.56" gradientUnits="userSpaceOnUse">
<stop stop-color="#52BBE8"/>
<stop offset="0.2" stop-color="#69C3EB"/>
<stop offset="0.6" stop-color="#A3D8F1"/>
<stop offset="1" stop-color="#E1EFF8"/>
</linearGradient>
<linearGradient id="paint20_linear_2801_8739" x1="106805" y1="40832.7" x2="83786.6" y2="-12198.1" gradientUnits="userSpaceOnUse">
<stop stop-color="#52BBE8"/>
<stop offset="0.2" stop-color="#69C3EB"/>
<stop offset="0.6" stop-color="#A3D8F1"/>
<stop offset="1" stop-color="#E1EFF8"/>
</linearGradient>
<linearGradient id="paint21_linear_2801_8739" x1="82572.9" y1="38506.2" x2="54955.7" y2="-8174.92" gradientUnits="userSpaceOnUse">
<stop stop-color="#52BBE8"/>
<stop offset="0.2" stop-color="#69C3EB"/>
<stop offset="0.6" stop-color="#A3D8F1"/>
<stop offset="1" stop-color="#E1EFF8"/>
</linearGradient>
<linearGradient id="paint22_linear_2801_8739" x1="95220.4" y1="68588.7" x2="43146.7" y2="-1046.56" gradientUnits="userSpaceOnUse">
<stop stop-color="#52BBE8"/>
<stop offset="0.2" stop-color="#69C3EB"/>
<stop offset="0.6" stop-color="#A3D8F1"/>
<stop offset="1" stop-color="#E1EFF8"/>
</linearGradient>
<linearGradient id="paint23_linear_2801_8739" x1="103068" y1="62819.7" x2="50986.8" y2="-6790.17" gradientUnits="userSpaceOnUse">
<stop stop-color="#52BBE8"/>
<stop offset="0.2" stop-color="#69C3EB"/>
<stop offset="0.6" stop-color="#A3D8F1"/>
<stop offset="1" stop-color="#E1EFF8"/>
</linearGradient>
<linearGradient id="paint24_linear_2801_8739" x1="27644.5" y1="49515.1" x2="-1894.63" y2="36644.6" gradientUnits="userSpaceOnUse">
<stop stop-color="#52BBE8"/>
<stop offset="0.2" stop-color="#69C3EB"/>
<stop offset="0.6" stop-color="#A3D8F1"/>
<stop offset="1" stop-color="#E1EFF8"/>
</linearGradient>
<linearGradient id="paint25_linear_2801_8739" x1="94842.8" y1="69101.1" x2="42771.1" y2="-534.644" gradientUnits="userSpaceOnUse">
<stop stop-color="#52BBE8"/>
<stop offset="0.2" stop-color="#69C3EB"/>
<stop offset="0.6" stop-color="#A3D8F1"/>
<stop offset="1" stop-color="#E1EFF8"/>
</linearGradient>
<linearGradient id="paint26_linear_2801_8739" x1="77836.7" y1="71469.5" x2="23505.7" y2="18219.3" gradientUnits="userSpaceOnUse">
<stop stop-color="#52BBE8"/>
<stop offset="0.2" stop-color="#69C3EB"/>
<stop offset="0.6" stop-color="#A3D8F1"/>
<stop offset="1" stop-color="#E1EFF8"/>
</linearGradient>
<linearGradient id="paint27_linear_2801_8739" x1="25549.3" y1="54634.5" x2="-3988.05" y2="41761.6" gradientUnits="userSpaceOnUse">
<stop stop-color="#52BBE8"/>
<stop offset="0.2" stop-color="#69C3EB"/>
<stop offset="0.6" stop-color="#A3D8F1"/>
<stop offset="1" stop-color="#E1EFF8"/>
</linearGradient>
<linearGradient id="paint28_linear_2801_8739" x1="8461.92" y1="7285.23" x2="3987.17" y2="382.644" gradientUnits="userSpaceOnUse">
<stop stop-color="#52BBE8"/>
<stop offset="0.2" stop-color="#69C3EB"/>
<stop offset="0.6" stop-color="#A3D8F1"/>
<stop offset="1" stop-color="#E1EFF8"/>
</linearGradient>
<linearGradient id="paint29_linear_2801_8739" x1="5156.58" y1="4797.29" x2="2357.91" y2="480.234" gradientUnits="userSpaceOnUse">
<stop stop-color="#52BBE8"/>
<stop offset="0.2" stop-color="#69C3EB"/>
<stop offset="0.6" stop-color="#A3D8F1"/>
<stop offset="1" stop-color="#E1EFF8"/>
</linearGradient>
<linearGradient id="paint30_linear_2801_8739" x1="4828.54" y1="4318.6" x2="2306.94" y2="428.739" gradientUnits="userSpaceOnUse">
<stop stop-color="#52BBE8"/>
<stop offset="0.2" stop-color="#69C3EB"/>
<stop offset="0.6" stop-color="#A3D8F1"/>
<stop offset="1" stop-color="#E1EFF8"/>
</linearGradient>
<linearGradient id="paint31_linear_2801_8739" x1="2778.39" y1="2313.06" x2="1481.15" y2="311.933" gradientUnits="userSpaceOnUse">
<stop stop-color="#52BBE8"/>
<stop offset="0.2" stop-color="#69C3EB"/>
<stop offset="0.6" stop-color="#A3D8F1"/>
<stop offset="1" stop-color="#E1EFF8"/>
</linearGradient>
<linearGradient id="paint32_linear_2801_8739" x1="5356.93" y1="4021.72" x2="2791.48" y2="64.4425" gradientUnits="userSpaceOnUse">
<stop stop-color="#52BBE8"/>
<stop offset="0.2" stop-color="#69C3EB"/>
<stop offset="0.6" stop-color="#A3D8F1"/>
<stop offset="1" stop-color="#E1EFF8"/>
</linearGradient>
<linearGradient id="paint33_linear_2801_8739" x1="9047.89" y1="7162.09" x2="4543.98" y2="214.548" gradientUnits="userSpaceOnUse">
<stop stop-color="#52BBE8"/>
<stop offset="0.2" stop-color="#69C3EB"/>
<stop offset="0.6" stop-color="#A3D8F1"/>
<stop offset="1" stop-color="#E1EFF8"/>
</linearGradient>
<linearGradient id="paint34_linear_2801_8739" x1="4250.63" y1="2858.71" x2="2355.78" y2="-64.2846" gradientUnits="userSpaceOnUse">
<stop stop-color="#52BBE8"/>
<stop offset="0.2" stop-color="#69C3EB"/>
<stop offset="0.6" stop-color="#A3D8F1"/>
<stop offset="1" stop-color="#E1EFF8"/>
</linearGradient>
<linearGradient id="paint35_linear_2801_8739" x1="7869.33" y1="5108.4" x2="4371.01" y2="-287.928" gradientUnits="userSpaceOnUse">
<stop stop-color="#52BBE8"/>
<stop offset="0.2" stop-color="#69C3EB"/>
<stop offset="0.6" stop-color="#A3D8F1"/>
<stop offset="1" stop-color="#E1EFF8"/>
</linearGradient>
<linearGradient id="paint36_linear_2801_8739" x1="9473.12" y1="6913.1" x2="5304.46" y2="482.479" gradientUnits="userSpaceOnUse">
<stop stop-color="#52BBE8"/>
<stop offset="0.2" stop-color="#69C3EB"/>
<stop offset="0.6" stop-color="#A3D8F1"/>
<stop offset="1" stop-color="#E1EFF8"/>
</linearGradient>
<linearGradient id="paint37_linear_2801_8739" x1="5312.07" y1="3082.69" x2="3125.62" y2="-290.022" gradientUnits="userSpaceOnUse">
<stop stop-color="#52BBE8"/>
<stop offset="0.2" stop-color="#69C3EB"/>
<stop offset="0.6" stop-color="#A3D8F1"/>
<stop offset="1" stop-color="#E1EFF8"/>
</linearGradient>
<linearGradient id="paint38_linear_2801_8739" x1="6214.78" y1="3486.34" x2="3707.75" y2="-380.877" gradientUnits="userSpaceOnUse">
<stop stop-color="#52BBE8"/>
<stop offset="0.2" stop-color="#69C3EB"/>
<stop offset="0.6" stop-color="#A3D8F1"/>
<stop offset="1" stop-color="#E1EFF8"/>
</linearGradient>
<linearGradient id="paint39_linear_2801_8739" x1="4639.1" y1="2959.03" x2="2846.29" y2="193.434" gradientUnits="userSpaceOnUse">
<stop stop-color="#52BBE8"/>
<stop offset="0.2" stop-color="#69C3EB"/>
<stop offset="0.6" stop-color="#A3D8F1"/>
<stop offset="1" stop-color="#E1EFF8"/>
</linearGradient>
<linearGradient id="paint40_linear_2801_8739" x1="4569.36" y1="2262.99" x2="2878.49" y2="-345.21" gradientUnits="userSpaceOnUse">
<stop stop-color="#52BBE8"/>
<stop offset="0.2" stop-color="#69C3EB"/>
<stop offset="0.6" stop-color="#A3D8F1"/>
<stop offset="1" stop-color="#E1EFF8"/>
</linearGradient>
<linearGradient id="paint41_linear_2801_8739" x1="7058.08" y1="3442.06" x2="4405.17" y2="-650.138" gradientUnits="userSpaceOnUse">
<stop stop-color="#52BBE8"/>
<stop offset="0.2" stop-color="#69C3EB"/>
<stop offset="0.6" stop-color="#A3D8F1"/>
<stop offset="1" stop-color="#E1EFF8"/>
</linearGradient>
<linearGradient id="paint42_linear_2801_8739" x1="8058" y1="4535.26" x2="5040.68" y2="-118.912" gradientUnits="userSpaceOnUse">
<stop stop-color="#52BBE8"/>
<stop offset="0.2" stop-color="#69C3EB"/>
<stop offset="0.6" stop-color="#A3D8F1"/>
<stop offset="1" stop-color="#E1EFF8"/>
</linearGradient>
<linearGradient id="paint43_linear_2801_8739" x1="7085.1" y1="3101.55" x2="4548.91" y2="-810.758" gradientUnits="userSpaceOnUse">
<stop stop-color="#52BBE8"/>
<stop offset="0.2" stop-color="#69C3EB"/>
<stop offset="0.6" stop-color="#A3D8F1"/>
<stop offset="1" stop-color="#E1EFF8"/>
</linearGradient>
<linearGradient id="paint44_linear_2801_8739" x1="6268.98" y1="5885.39" x2="2887.4" y2="668.947" gradientUnits="userSpaceOnUse">
<stop stop-color="#52BBE8"/>
<stop offset="0.2" stop-color="#69C3EB"/>
<stop offset="0.6" stop-color="#A3D8F1"/>
<stop offset="1" stop-color="#E1EFF8"/>
</linearGradient>
<linearGradient id="paint45_linear_2801_8739" x1="3732.4" y1="2908.56" x2="1997.79" y2="232.914" gradientUnits="userSpaceOnUse">
<stop stop-color="#52BBE8"/>
<stop offset="0.2" stop-color="#69C3EB"/>
<stop offset="0.6" stop-color="#A3D8F1"/>
<stop offset="1" stop-color="#E1EFF8"/>
</linearGradient>
<linearGradient id="paint46_linear_2801_8739" x1="6533.9" y1="5314.12" x2="3327.22" y2="367.465" gradientUnits="userSpaceOnUse">
<stop stop-color="#52BBE8"/>
<stop offset="0.2" stop-color="#69C3EB"/>
<stop offset="0.6" stop-color="#A3D8F1"/>
<stop offset="1" stop-color="#E1EFF8"/>
</linearGradient>
<linearGradient id="paint47_linear_2801_8739" x1="4553.57" y1="3791.67" x2="2527.54" y2="666.289" gradientUnits="userSpaceOnUse">
<stop stop-color="#52BBE8"/>
<stop offset="0.2" stop-color="#69C3EB"/>
<stop offset="0.6" stop-color="#A3D8F1"/>
<stop offset="1" stop-color="#E1EFF8"/>
</linearGradient>
<linearGradient id="paint48_linear_2801_8739" x1="10578.7" y1="7005.47" x2="5841.38" y2="-302.045" gradientUnits="userSpaceOnUse">
<stop stop-color="#52BBE8"/>
<stop offset="0.2" stop-color="#69C3EB"/>
<stop offset="0.6" stop-color="#A3D8F1"/>
<stop offset="1" stop-color="#E1EFF8"/>
</linearGradient>
<linearGradient id="paint49_linear_2801_8739" x1="8569.12" y1="4957.87" x2="5056.37" y2="-460.927" gradientUnits="userSpaceOnUse">
<stop stop-color="#52BBE8"/>
<stop offset="0.2" stop-color="#69C3EB"/>
<stop offset="0.6" stop-color="#A3D8F1"/>
<stop offset="1" stop-color="#E1EFF8"/>
</linearGradient>
<linearGradient id="paint50_linear_2801_8739" x1="8577.7" y1="5081.07" x2="5079.35" y2="-315.117" gradientUnits="userSpaceOnUse">
<stop stop-color="#52BBE8"/>
<stop offset="0.2" stop-color="#69C3EB"/>
<stop offset="0.6" stop-color="#A3D8F1"/>
<stop offset="1" stop-color="#E1EFF8"/>
</linearGradient>
<linearGradient id="paint51_linear_2801_8739" x1="9791.66" y1="6009.91" x2="5652.15" y2="-375.547" gradientUnits="userSpaceOnUse">
<stop stop-color="#52BBE8"/>
<stop offset="0.2" stop-color="#69C3EB"/>
<stop offset="0.6" stop-color="#A3D8F1"/>
<stop offset="1" stop-color="#E1EFF8"/>
</linearGradient>
<linearGradient id="paint52_linear_2801_8739" x1="9797.49" y1="4950.67" x2="6036.78" y2="-850.37" gradientUnits="userSpaceOnUse">
<stop stop-color="#52BBE8"/>
<stop offset="0.2" stop-color="#69C3EB"/>
<stop offset="0.6" stop-color="#A3D8F1"/>
<stop offset="1" stop-color="#E1EFF8"/>
</linearGradient>
<linearGradient id="paint53_linear_2801_8739" x1="5205.63" y1="4735.79" x2="2509" y2="576.143" gradientUnits="userSpaceOnUse">
<stop stop-color="#52BBE8"/>
<stop offset="0.2" stop-color="#69C3EB"/>
<stop offset="0.6" stop-color="#A3D8F1"/>
<stop offset="1" stop-color="#E1EFF8"/>
</linearGradient>
<linearGradient id="paint54_linear_2801_8739" x1="5135.79" y1="3859.68" x2="2964.01" y2="509.578" gradientUnits="userSpaceOnUse">
<stop stop-color="#52BBE8"/>
<stop offset="0.2" stop-color="#69C3EB"/>
<stop offset="0.6" stop-color="#A3D8F1"/>
<stop offset="1" stop-color="#E1EFF8"/>
</linearGradient>
<linearGradient id="paint55_linear_2801_8739" x1="5452.23" y1="3736.04" x2="3120.13" y2="138.494" gradientUnits="userSpaceOnUse">
<stop stop-color="#52BBE8"/>
<stop offset="0.2" stop-color="#69C3EB"/>
<stop offset="0.6" stop-color="#A3D8F1"/>
<stop offset="1" stop-color="#E1EFF8"/>
</linearGradient>
<linearGradient id="paint56_linear_2801_8739" x1="6105.53" y1="3977.07" x2="3802.56" y2="424.494" gradientUnits="userSpaceOnUse">
<stop stop-color="#52BBE8"/>
<stop offset="0.2" stop-color="#69C3EB"/>
<stop offset="0.6" stop-color="#A3D8F1"/>
<stop offset="1" stop-color="#E1EFF8"/>
</linearGradient>
<linearGradient id="paint57_linear_2801_8739" x1="7291.78" y1="4603.59" x2="4289.19" y2="-28.2745" gradientUnits="userSpaceOnUse">
<stop stop-color="#52BBE8"/>
<stop offset="0.2" stop-color="#69C3EB"/>
<stop offset="0.6" stop-color="#A3D8F1"/>
<stop offset="1" stop-color="#E1EFF8"/>
</linearGradient>
<linearGradient id="paint58_linear_2801_8739" x1="7744.52" y1="4467.79" x2="4872.98" y2="38.3277" gradientUnits="userSpaceOnUse">
<stop stop-color="#52BBE8"/>
<stop offset="0.2" stop-color="#69C3EB"/>
<stop offset="0.6" stop-color="#A3D8F1"/>
<stop offset="1" stop-color="#E1EFF8"/>
</linearGradient>
<linearGradient id="paint59_linear_2801_8739" x1="7091.32" y1="5860.15" x2="3622.14" y2="508.976" gradientUnits="userSpaceOnUse">
<stop stop-color="#52BBE8"/>
<stop offset="0.2" stop-color="#69C3EB"/>
<stop offset="0.6" stop-color="#A3D8F1"/>
<stop offset="1" stop-color="#E1EFF8"/>
</linearGradient>
<linearGradient id="paint60_linear_2801_8739" x1="7574.37" y1="6003.28" x2="3974.12" y2="449.708" gradientUnits="userSpaceOnUse">
<stop stop-color="#52BBE8"/>
<stop offset="0.2" stop-color="#69C3EB"/>
<stop offset="0.6" stop-color="#A3D8F1"/>
<stop offset="1" stop-color="#E1EFF8"/>
</linearGradient>
<linearGradient id="paint61_linear_2801_8739" x1="4965.13" y1="4304.87" x2="2793.35" y2="954.652" gradientUnits="userSpaceOnUse">
<stop stop-color="#52BBE8"/>
<stop offset="0.2" stop-color="#69C3EB"/>
<stop offset="0.6" stop-color="#A3D8F1"/>
<stop offset="1" stop-color="#E1EFF8"/>
</linearGradient>
<linearGradient id="paint62_linear_2801_8739" x1="6135.47" y1="5441.08" x2="3307.68" y2="1079.05" gradientUnits="userSpaceOnUse">
<stop stop-color="#52BBE8"/>
<stop offset="0.2" stop-color="#69C3EB"/>
<stop offset="0.6" stop-color="#A3D8F1"/>
<stop offset="1" stop-color="#E1EFF8"/>
</linearGradient>
<linearGradient id="paint63_linear_2801_8739" x1="7033.27" y1="5354.26" x2="4016.08" y2="699.947" gradientUnits="userSpaceOnUse">
<stop stop-color="#52BBE8"/>
<stop offset="0.2" stop-color="#69C3EB"/>
<stop offset="0.6" stop-color="#A3D8F1"/>
<stop offset="1" stop-color="#E1EFF8"/>
</linearGradient>
<linearGradient id="paint64_linear_2801_8739" x1="9835.46" y1="7539.78" x2="5550.01" y2="929.486" gradientUnits="userSpaceOnUse">
<stop stop-color="#52BBE8"/>
<stop offset="0.2" stop-color="#69C3EB"/>
<stop offset="0.6" stop-color="#A3D8F1"/>
<stop offset="1" stop-color="#E1EFF8"/>
</linearGradient>
<linearGradient id="paint65_linear_2801_8739" x1="5741.68" y1="4133.77" x2="3322" y2="401.457" gradientUnits="userSpaceOnUse">
<stop stop-color="#52BBE8"/>
<stop offset="0.2" stop-color="#69C3EB"/>
<stop offset="0.6" stop-color="#A3D8F1"/>
<stop offset="1" stop-color="#E1EFF8"/>
</linearGradient>
<linearGradient id="paint66_linear_2801_8739" x1="9614.1" y1="6617.69" x2="5357.99" y2="52.1854" gradientUnits="userSpaceOnUse">
<stop stop-color="#52BBE8"/>
<stop offset="0.2" stop-color="#69C3EB"/>
<stop offset="0.6" stop-color="#A3D8F1"/>
<stop offset="1" stop-color="#E1EFF8"/>
</linearGradient>
<linearGradient id="paint67_linear_2801_8739" x1="5110.99" y1="3558.89" x2="3186.9" y2="590.941" gradientUnits="userSpaceOnUse">
<stop stop-color="#52BBE8"/>
<stop offset="0.2" stop-color="#69C3EB"/>
<stop offset="0.6" stop-color="#A3D8F1"/>
<stop offset="1" stop-color="#E1EFF8"/>
</linearGradient>
<linearGradient id="paint68_linear_2801_8739" x1="4971.63" y1="4377.05" x2="2639.52" y2="779.597" gradientUnits="userSpaceOnUse">
<stop stop-color="#52BBE8"/>
<stop offset="0.2" stop-color="#69C3EB"/>
<stop offset="0.6" stop-color="#A3D8F1"/>
<stop offset="1" stop-color="#E1EFF8"/>
</linearGradient>
<linearGradient id="paint69_linear_2801_8739" x1="9562.99" y1="7758.77" x2="5000.58" y2="721.083" gradientUnits="userSpaceOnUse">
<stop stop-color="#52BBE8"/>
<stop offset="0.2" stop-color="#69C3EB"/>
<stop offset="0.6" stop-color="#A3D8F1"/>
<stop offset="1" stop-color="#E1EFF8"/>
</linearGradient>
<linearGradient id="paint70_linear_2801_8739" x1="5738.09" y1="4382.45" x2="3260.23" y2="560.056" gradientUnits="userSpaceOnUse">
<stop stop-color="#52BBE8"/>
<stop offset="0.2" stop-color="#69C3EB"/>
<stop offset="0.6" stop-color="#A3D8F1"/>
<stop offset="1" stop-color="#E1EFF8"/>
</linearGradient>
<linearGradient id="paint71_linear_2801_8739" x1="8542.23" y1="6135.67" x2="4825.43" y2="402.103" gradientUnits="userSpaceOnUse">
<stop stop-color="#52BBE8"/>
<stop offset="0.2" stop-color="#69C3EB"/>
<stop offset="0.6" stop-color="#A3D8F1"/>
<stop offset="1" stop-color="#E1EFF8"/>
</linearGradient>
<linearGradient id="paint72_linear_2801_8739" x1="10912.9" y1="8164.8" x2="5956.95" y2="520.246" gradientUnits="userSpaceOnUse">
<stop stop-color="#52BBE8"/>
<stop offset="0.2" stop-color="#69C3EB"/>
<stop offset="0.6" stop-color="#A3D8F1"/>
<stop offset="1" stop-color="#E1EFF8"/>
</linearGradient>
<linearGradient id="paint73_linear_2801_8739" x1="82612.3" y1="49796.9" x2="48604.3" y2="-16657.8" gradientUnits="userSpaceOnUse">
<stop stop-color="#52BBE8"/>
<stop offset="0.2" stop-color="#69C3EB"/>
<stop offset="0.6" stop-color="#A3D8F1"/>
<stop offset="1" stop-color="#E1EFF8"/>
</linearGradient>
<linearGradient id="paint74_linear_2801_8739" x1="89466.8" y1="46376.8" x2="55460.2" y2="-20077.4" gradientUnits="userSpaceOnUse">
<stop stop-color="#52BBE8"/>
<stop offset="0.2" stop-color="#69C3EB"/>
<stop offset="0.6" stop-color="#A3D8F1"/>
<stop offset="1" stop-color="#E1EFF8"/>
</linearGradient>
<linearGradient id="paint75_linear_2801_8739" x1="96323" y1="42958.2" x2="62315" y2="-23496.5" gradientUnits="userSpaceOnUse">
<stop stop-color="#52BBE8"/>
<stop offset="0.2" stop-color="#69C3EB"/>
<stop offset="0.6" stop-color="#A3D8F1"/>
<stop offset="1" stop-color="#E1EFF8"/>
</linearGradient>
<linearGradient id="paint76_linear_2801_8739" x1="82621.9" y1="40526.7" x2="44858" y2="-19621.3" gradientUnits="userSpaceOnUse">
<stop stop-color="#52BBE8"/>
<stop offset="0.2" stop-color="#69C3EB"/>
<stop offset="0.6" stop-color="#A3D8F1"/>
<stop offset="1" stop-color="#E1EFF8"/>
</linearGradient>
<linearGradient id="paint77_linear_2801_8739" x1="85824.6" y1="61061.1" x2="27022.4" y2="-17561.5" gradientUnits="userSpaceOnUse">
<stop stop-color="#52BBE8"/>
<stop offset="0.2" stop-color="#69C3EB"/>
<stop offset="0.6" stop-color="#A3D8F1"/>
<stop offset="1" stop-color="#E1EFF8"/>
</linearGradient>
<linearGradient id="paint78_linear_2801_8739" x1="92630.8" y1="56063.1" x2="33821.4" y2="-22528.9" gradientUnits="userSpaceOnUse">
<stop stop-color="#52BBE8"/>
<stop offset="0.2" stop-color="#69C3EB"/>
<stop offset="0.6" stop-color="#A3D8F1"/>
<stop offset="1" stop-color="#E1EFF8"/>
</linearGradient>
<linearGradient id="paint79_linear_2801_8739" x1="32511.9" y1="48678.3" x2="-8466.26" y2="27419.6" gradientUnits="userSpaceOnUse">
<stop stop-color="#52BBE8"/>
<stop offset="0.2" stop-color="#69C3EB"/>
<stop offset="0.6" stop-color="#A3D8F1"/>
<stop offset="1" stop-color="#E1EFF8"/>
</linearGradient>
<linearGradient id="paint80_linear_2801_8739" x1="85457.5" y1="61516.8" x2="26648.1" y2="-17075.2" gradientUnits="userSpaceOnUse">
<stop stop-color="#52BBE8"/>
<stop offset="0.2" stop-color="#69C3EB"/>
<stop offset="0.6" stop-color="#A3D8F1"/>
<stop offset="1" stop-color="#E1EFF8"/>
</linearGradient>
<linearGradient id="paint81_linear_2801_8739" x1="77904.6" y1="63848.2" x2="16796.7" y2="-2692.31" gradientUnits="userSpaceOnUse">
<stop stop-color="#52BBE8"/>
<stop offset="0.2" stop-color="#69C3EB"/>
<stop offset="0.6" stop-color="#A3D8F1"/>
<stop offset="1" stop-color="#E1EFF8"/>
</linearGradient>
<linearGradient id="paint82_linear_2801_8739" x1="85137.4" y1="61962.6" x2="26340" y2="-16625.9" gradientUnits="userSpaceOnUse">
<stop stop-color="#52BBE8"/>
<stop offset="0.2" stop-color="#69C3EB"/>
<stop offset="0.6" stop-color="#A3D8F1"/>
<stop offset="1" stop-color="#E1EFF8"/>
</linearGradient>
<linearGradient id="paint83_linear_2801_8739" x1="30133.2" y1="53563.5" x2="-10844.9" y2="32304.1" gradientUnits="userSpaceOnUse">
<stop stop-color="#52BBE8"/>
<stop offset="0.2" stop-color="#69C3EB"/>
<stop offset="0.6" stop-color="#A3D8F1"/>
<stop offset="1" stop-color="#E1EFF8"/>
</linearGradient>
<linearGradient id="paint84_linear_2801_8739" x1="126825" y1="53415.1" x2="86158.9" y2="-31103.5" gradientUnits="userSpaceOnUse">
<stop stop-color="#52BBE8"/>
<stop offset="0.2" stop-color="#69C3EB"/>
<stop offset="0.6" stop-color="#A3D8F1"/>
<stop offset="1" stop-color="#E1EFF8"/>
</linearGradient>
<linearGradient id="paint85_linear_2801_8739" x1="67058.4" y1="50597.7" x2="15065.1" y2="-3703.47" gradientUnits="userSpaceOnUse">
<stop stop-color="#52BBE8"/>
<stop offset="0.2" stop-color="#69C3EB"/>
<stop offset="0.6" stop-color="#A3D8F1"/>
<stop offset="1" stop-color="#E1EFF8"/>
</linearGradient>
<linearGradient id="paint86_linear_2801_8739" x1="2129.36" y1="40524.3" x2="-273.512" y2="40454.4" gradientUnits="userSpaceOnUse">
<stop stop-color="#52BBE8"/>
<stop offset="0.2" stop-color="#69C3EB"/>
<stop offset="0.6" stop-color="#A3D8F1"/>
<stop offset="1" stop-color="#E1EFF8"/>
</linearGradient>
<linearGradient id="paint87_linear_2801_8739" x1="108511" y1="84166.2" x2="30712.4" y2="-19172.2" gradientUnits="userSpaceOnUse">
<stop stop-color="#52BBE8"/>
<stop offset="0.2" stop-color="#69C3EB"/>
<stop offset="0.6" stop-color="#A3D8F1"/>
<stop offset="1" stop-color="#E1EFF8"/>
</linearGradient>
<linearGradient id="paint88_linear_2801_8739" x1="8179.96" y1="5550.78" x2="3403.09" y2="-1817.76" gradientUnits="userSpaceOnUse">
<stop stop-color="#52BBE8"/>
<stop offset="0.2" stop-color="#69C3EB"/>
<stop offset="0.6" stop-color="#A3D8F1"/>
<stop offset="1" stop-color="#E1EFF8"/>
</linearGradient>
<linearGradient id="paint89_linear_2801_8739" x1="5648.2" y1="3868.91" x2="2641.55" y2="-769.006" gradientUnits="userSpaceOnUse">
<stop stop-color="#52BBE8"/>
<stop offset="0.2" stop-color="#69C3EB"/>
<stop offset="0.6" stop-color="#A3D8F1"/>
<stop offset="1" stop-color="#E1EFF8"/>
</linearGradient>
<linearGradient id="paint90_linear_2801_8739" x1="11006.6" y1="5022.49" x2="5793.88" y2="-3018.38" gradientUnits="userSpaceOnUse">
<stop stop-color="#52BBE8"/>
<stop offset="0.2" stop-color="#69C3EB"/>
<stop offset="0.6" stop-color="#A3D8F1"/>
<stop offset="1" stop-color="#E1EFF8"/>
</linearGradient>
<linearGradient id="paint91_linear_2801_8739" x1="12981.5" y1="6798.87" x2="6826.1" y2="-2696.24" gradientUnits="userSpaceOnUse">
<stop stop-color="#52BBE8"/>
<stop offset="0.2" stop-color="#69C3EB"/>
<stop offset="0.6" stop-color="#A3D8F1"/>
<stop offset="1" stop-color="#E1EFF8"/>
</linearGradient>
<linearGradient id="paint92_linear_2801_8739" x1="6417" y1="4961.53" x2="2414.07" y2="-1213.2" gradientUnits="userSpaceOnUse">
<stop stop-color="#52BBE8"/>
<stop offset="0.2" stop-color="#69C3EB"/>
<stop offset="0.6" stop-color="#A3D8F1"/>
<stop offset="1" stop-color="#E1EFF8"/>
</linearGradient>
<linearGradient id="paint93_linear_2801_8739" x1="6455.99" y1="3907.01" x2="3217.93" y2="-1087.63" gradientUnits="userSpaceOnUse">
<stop stop-color="#52BBE8"/>
<stop offset="0.2" stop-color="#69C3EB"/>
<stop offset="0.6" stop-color="#A3D8F1"/>
<stop offset="1" stop-color="#E1EFF8"/>
</linearGradient>
<linearGradient id="paint94_linear_2801_8739" x1="7128.84" y1="4133.1" x2="3659.64" y2="-1218.46" gradientUnits="userSpaceOnUse">
<stop stop-color="#52BBE8"/>
<stop offset="0.2" stop-color="#69C3EB"/>
<stop offset="0.6" stop-color="#A3D8F1"/>
<stop offset="1" stop-color="#E1EFF8"/>
</linearGradient>
<linearGradient id="paint95_linear_2801_8739" x1="9320.73" y1="4589.28" x2="4837.47" y2="-2326.46" gradientUnits="userSpaceOnUse">
<stop stop-color="#52BBE8"/>
<stop offset="0.2" stop-color="#69C3EB"/>
<stop offset="0.6" stop-color="#A3D8F1"/>
<stop offset="1" stop-color="#E1EFF8"/>
</linearGradient>
<linearGradient id="paint96_linear_2801_8739" x1="9239.1" y1="6813.12" x2="4079.95" y2="-1145.21" gradientUnits="userSpaceOnUse">
<stop stop-color="#52BBE8"/>
<stop offset="0.2" stop-color="#69C3EB"/>
<stop offset="0.6" stop-color="#A3D8F1"/>
<stop offset="1" stop-color="#E1EFF8"/>
</linearGradient>
<linearGradient id="paint97_linear_2801_8739" x1="9478.52" y1="6272.45" x2="4141.27" y2="-1960.52" gradientUnits="userSpaceOnUse">
<stop stop-color="#52BBE8"/>
<stop offset="0.2" stop-color="#69C3EB"/>
<stop offset="0.6" stop-color="#A3D8F1"/>
<stop offset="1" stop-color="#E1EFF8"/>
</linearGradient>
<linearGradient id="paint98_linear_2801_8739" x1="6182.1" y1="4492.7" x2="2944.18" y2="-501.957" gradientUnits="userSpaceOnUse">
<stop stop-color="#52BBE8"/>
<stop offset="0.2" stop-color="#69C3EB"/>
<stop offset="0.6" stop-color="#A3D8F1"/>
<stop offset="1" stop-color="#E1EFF8"/>
</linearGradient>
<linearGradient id="paint99_linear_2801_8739" x1="7343.96" y1="5257.18" x2="3127.54" y2="-1246.9" gradientUnits="userSpaceOnUse">
<stop stop-color="#52BBE8"/>
<stop offset="0.2" stop-color="#69C3EB"/>
<stop offset="0.6" stop-color="#A3D8F1"/>
<stop offset="1" stop-color="#E1EFF8"/>
</linearGradient>
<linearGradient id="paint100_linear_2801_8739" x1="8887.94" y1="5572.42" x2="4386.86" y2="-1370.89" gradientUnits="userSpaceOnUse">
<stop stop-color="#52BBE8"/>
<stop offset="0.2" stop-color="#69C3EB"/>
<stop offset="0.6" stop-color="#A3D8F1"/>
<stop offset="1" stop-color="#E1EFF8"/>
</linearGradient>
<linearGradient id="paint101_linear_2801_8739" x1="12462.7" y1="7992.63" x2="6075.79" y2="-1859.47" gradientUnits="userSpaceOnUse">
<stop stop-color="#52BBE8"/>
<stop offset="0.2" stop-color="#69C3EB"/>
<stop offset="0.6" stop-color="#A3D8F1"/>
<stop offset="1" stop-color="#E1EFF8"/>
</linearGradient>
<linearGradient id="paint102_linear_2801_8739" x1="7156.47" y1="4130.26" x2="3598.32" y2="-1358.38" gradientUnits="userSpaceOnUse">
<stop stop-color="#52BBE8"/>
<stop offset="0.2" stop-color="#69C3EB"/>
<stop offset="0.6" stop-color="#A3D8F1"/>
<stop offset="1" stop-color="#E1EFF8"/>
</linearGradient>
<linearGradient id="paint103_linear_2801_8739" x1="12229.5" y1="6823.79" x2="5895.95" y2="-2946" gradientUnits="userSpaceOnUse">
<stop stop-color="#52BBE8"/>
<stop offset="0.2" stop-color="#69C3EB"/>
<stop offset="0.6" stop-color="#A3D8F1"/>
<stop offset="1" stop-color="#E1EFF8"/>
</linearGradient>
<linearGradient id="paint104_linear_2801_8739" x1="5061.1" y1="4407.69" x2="2072.24" y2="-202.742" gradientUnits="userSpaceOnUse">
<stop stop-color="#52BBE8"/>
<stop offset="0.2" stop-color="#69C3EB"/>
<stop offset="0.6" stop-color="#A3D8F1"/>
<stop offset="1" stop-color="#E1EFF8"/>
</linearGradient>
<linearGradient id="paint105_linear_2801_8739" x1="6413.96" y1="4998.64" x2="2944.76" y2="-352.794" gradientUnits="userSpaceOnUse">
<stop stop-color="#52BBE8"/>
<stop offset="0.2" stop-color="#69C3EB"/>
<stop offset="0.6" stop-color="#A3D8F1"/>
<stop offset="1" stop-color="#E1EFF8"/>
</linearGradient>
<linearGradient id="paint106_linear_2801_8739" x1="12527.2" y1="9134.87" x2="5731.4" y2="-1348.44" gradientUnits="userSpaceOnUse">
<stop stop-color="#52BBE8"/>
<stop offset="0.2" stop-color="#69C3EB"/>
<stop offset="0.6" stop-color="#A3D8F1"/>
<stop offset="1" stop-color="#E1EFF8"/>
</linearGradient>
<linearGradient id="paint107_linear_2801_8739" x1="7227.63" y1="4501.94" x2="3527.27" y2="-1206.24" gradientUnits="userSpaceOnUse">
<stop stop-color="#52BBE8"/>
<stop offset="0.2" stop-color="#69C3EB"/>
<stop offset="0.6" stop-color="#A3D8F1"/>
<stop offset="1" stop-color="#E1EFF8"/>
</linearGradient>
<linearGradient id="paint108_linear_2801_8739" x1="6424.36" y1="5886.06" x2="2421.55" y2="-288.677" gradientUnits="userSpaceOnUse">
<stop stop-color="#52BBE8"/>
<stop offset="0.2" stop-color="#69C3EB"/>
<stop offset="0.6" stop-color="#A3D8F1"/>
<stop offset="1" stop-color="#E1EFF8"/>
</linearGradient>
<linearGradient id="paint109_linear_2801_8739" x1="9425.16" y1="6690.66" x2="4194.64" y2="-1377.67" gradientUnits="userSpaceOnUse">
<stop stop-color="#52BBE8"/>
<stop offset="0.2" stop-color="#69C3EB"/>
<stop offset="0.6" stop-color="#A3D8F1"/>
<stop offset="1" stop-color="#E1EFF8"/>
</linearGradient>
<linearGradient id="paint110_linear_2801_8739" x1="9126.67" y1="6945.06" x2="3913.78" y2="-1095.96" gradientUnits="userSpaceOnUse">
<stop stop-color="#52BBE8"/>
<stop offset="0.2" stop-color="#69C3EB"/>
<stop offset="0.6" stop-color="#A3D8F1"/>
<stop offset="1" stop-color="#E1EFF8"/>
</linearGradient>
</defs>
</svg>
