<svg width="20" height="20" viewBox="0 0 20 20" fill="none" xmlns="http://www.w3.org/2000/svg">
<g clip-path="url(#clip0_2802_9261)">
<path d="M10.0009 6.67008C10.6595 6.67008 11.3032 6.86535 11.8508 7.23119C12.3983 7.59702 12.8251 8.117 13.0772 8.72538C13.3292 9.33376 13.3952 10.0032 13.2668 10.6491C13.1385 11.295 12.8214 11.8883 12.3558 12.354C11.8903 12.8198 11.2971 13.137 10.6512 13.2656C10.0054 13.3942 9.33588 13.3284 8.72742 13.0765C8.11896 12.8247 7.59884 12.398 7.23283 11.8506C6.86682 11.3031 6.67135 10.6595 6.67114 10.0009C6.67086 9.56354 6.75679 9.13037 6.92402 8.72619C7.09125 8.32202 7.33649 7.95476 7.64573 7.64542C7.95498 7.33608 8.32215 7.09072 8.72628 6.92336C9.1304 6.75601 9.56354 6.66994 10.0009 6.67008V6.67008ZM10.0009 4.82959C8.97836 4.82938 7.97867 5.13241 7.12831 5.70035C6.27794 6.2683 5.61508 7.07565 5.22356 8.02032C4.83204 8.96499 4.72944 10.0045 4.92873 11.0075C5.12802 12.0105 5.62026 12.9319 6.34319 13.6551C7.06612 14.3783 7.98728 14.8709 8.99018 15.0706C9.99308 15.2703 11.0327 15.1682 11.9775 14.777C12.9223 14.3859 13.73 13.7234 14.2982 12.8732C14.8665 12.0231 15.17 11.0235 15.1702 10.0009C15.1691 8.63013 14.6242 7.31575 13.655 6.34624C12.6859 5.37672 11.3718 4.83127 10.0009 4.82959V4.82959Z" fill="#C021A7"/>
<path d="M14.4087 1.84049C15.4036 1.84049 16.3577 2.23563 17.0613 2.93901C17.7649 3.64239 18.1603 4.59642 18.1606 5.59129V14.4077C18.1606 15.4027 17.7653 16.357 17.0617 17.0606C16.3581 17.7642 15.4038 18.1595 14.4087 18.1595H5.59234C5.09969 18.1595 4.61187 18.0625 4.15673 17.8739C3.70159 17.6853 3.28806 17.409 2.93976 17.0606C2.59145 16.7121 2.31519 16.2985 2.12676 15.8433C1.93832 15.3882 1.84141 14.9003 1.84155 14.4077V5.59129C1.84155 4.59652 2.23672 3.64248 2.94013 2.93907C3.64354 2.23566 4.59757 1.84049 5.59234 1.84049H14.4087V1.84049ZM14.4087 0H5.59234C4.10977 0.00139981 2.68831 0.590895 1.63988 1.63913C0.591445 2.68736 0.00168026 4.10873 0 5.59129V14.4077C0.00167976 15.8903 0.591411 17.3118 1.63981 18.3602C2.68822 19.4086 4.10967 19.9983 5.59234 20H14.4087C15.8914 19.9983 17.3128 19.4086 18.3612 18.3602C19.4096 17.3118 19.9994 15.8903 20.0011 14.4077V5.59129C19.9994 4.10873 19.4096 2.68736 18.3612 1.63913C17.3127 0.590895 15.8913 0.00139981 14.4087 0V0Z" fill="url(#paint0_linear_2802_9261)"/>
<path d="M16.6282 4.83109C16.7829 4.17554 16.377 3.51869 15.7214 3.36396C15.0659 3.20924 14.409 3.61524 14.2543 4.27079C14.0995 4.92634 14.5056 5.58319 15.1611 5.73792C15.8166 5.89264 16.4735 5.48664 16.6282 4.83109Z" fill="#C021A7"/>
</g>
<defs>
<linearGradient id="paint0_linear_2802_9261" x1="10.0005" y1="0" x2="10.0005" y2="20" gradientUnits="userSpaceOnUse">
<stop stop-color="#A32EC3"/>
<stop offset="1" stop-color="#F00074"/>
</linearGradient>
<clipPath id="clip0_2802_9261">
<rect width="20" height="20" fill="white"/>
</clipPath>
</defs>
</svg>
