<svg width="20" height="20" viewBox="0 0 20 20" fill="none" xmlns="http://www.w3.org/2000/svg">
<path d="M17.7154 4.58112C18.6576 3.97325 19.1024 3.59028 19.461 2.31274C19.461 2.31274 17.7478 3.2904 16.8381 3.2904H16.7935C16.1756 2.63723 15.3612 2.2038 14.4743 2.05607C13.5875 1.90834 12.6766 2.0544 11.8804 2.47202C11.0841 2.88964 10.4461 3.55595 10.0634 4.36956C9.68074 5.18317 9.57435 6.09952 9.76042 6.97917L9.71382 7.0045C5.2024 7.19801 1.33125 2.7494 1.33125 2.7494C-0.0627996 5.63375 1.49537 7.4442 2.51153 8.32156C1.96545 8.24861 1.38394 8.15236 0.750737 7.83728C0.750737 8.74909 0.929048 10.9162 3.94409 11.9029C3.38687 12.0448 2.82055 11.9698 2.1833 11.9627C2.1833 11.9627 2.62804 14.5816 5.93892 14.8268C4.41924 15.998 2.78304 16.6849 0 16.54C2.16807 17.7912 6.28134 19.705 11.3783 17.3039L12.2314 16.8135C13.8811 15.8639 15.2654 14.5145 16.2569 12.8896C17.2483 11.2647 17.815 9.41648 17.9049 7.51511L17.9738 6.05014C18.7731 5.71277 19.7123 4.53047 20 4.04316C19.2634 4.31533 18.4961 4.496 17.7154 4.58112V4.58112Z" fill="#0C9AF2"/>
</svg>
