<svg width="20" height="20" viewBox="0 0 20 20" fill="none" xmlns="http://www.w3.org/2000/svg">
<path d="M19.7801 7.02028C19.7411 6.75316 19.6947 6.48512 19.6438 6.21891C19.6105 6.04082 19.5742 5.86334 19.5348 5.68647C19.5086 5.56925 19.4755 5.45366 19.4358 5.34029C19.4149 5.28032 19.3903 5.22126 19.3658 5.15857C19.1922 4.76065 18.928 4.40876 18.5944 4.13094C18.1036 3.72697 17.508 3.4708 16.8772 3.39226C12.3506 2.80077 7.88204 2.94251 3.12099 3.39226C2.98133 3.40613 2.8429 3.43011 2.70671 3.46403C2.56402 3.49954 2.42428 3.54602 2.28875 3.60305L2.25512 3.61759C1.94256 3.74181 1.65133 3.9141 1.39195 4.12822C1.07273 4.39139 0.818155 4.7243 0.647819 5.10133C0.630556 5.13585 0.616018 5.17129 0.602389 5.20673C0.58876 5.24216 0.579663 5.26488 0.56876 5.29759L0.546045 5.363L0.462462 5.66556C0.423089 5.84244 0.386727 6.01991 0.353412 6.198C0.301319 6.46331 0.255889 6.73044 0.217123 6.99939C0.0955094 7.80858 0.0245151 8.62457 0.00452524 9.44261C0.00452524 9.51893 0 9.59615 0 9.67429C0 9.7706 0 9.8651 0 9.96141V9.9814C0 10.0777 0.0145305 10.3448 0.219873 12.9234C0.258943 13.1906 0.304373 13.4586 0.356163 13.7248C0.389478 13.9029 0.425795 14.0804 0.465168 14.2573C0.491008 14.3746 0.524114 14.4902 0.564235 14.6034C0.585133 14.6634 0.609644 14.7225 0.633267 14.7851C0.807534 15.1829 1.07194 15.5348 1.40557 15.8128C1.89586 16.2171 2.49124 16.4733 3.12193 16.5515C7.65037 17.1448 12.117 17.0058 16.879 16.5515C17.0275 16.5375 17.1746 16.511 17.3188 16.4724L17.3696 16.4597C17.5154 16.4196 17.6579 16.3682 17.7958 16.3061L17.823 16.2934C18.1061 16.1728 18.3702 16.0118 18.6072 15.8155C18.9271 15.5528 19.1821 15.2198 19.3522 14.8424C19.3685 14.8079 19.384 14.7724 19.3976 14.737L19.4312 14.6461C19.4385 14.6243 19.4458 14.6025 19.454 14.5807L19.5375 14.2782C19.5769 14.1013 19.6133 13.9238 19.6466 13.7457C19.6975 13.4804 19.7438 13.2133 19.7829 12.9443C19.904 12.1351 19.975 11.3191 19.9955 10.5011C19.9955 10.4248 20 10.3476 20 10.2694C20 10.1668 20 10.065 20 9.96232C20 9.85965 19.9846 9.60342 19.7801 7.02028Z" fill="#FF0401"/>
<path d="M13.0127 9.95335C13.0163 9.95515 13.0194 9.95794 13.0215 9.96139C13.0237 9.96484 13.0248 9.96882 13.0248 9.97288C13.0248 9.97694 13.0237 9.98092 13.0215 9.98437C13.0194 9.98782 13.0163 9.9906 13.0127 9.99241L10.5031 11.4462L7.9936 12.8954C7.99014 12.8973 7.98624 12.8982 7.98229 12.8982C7.97834 12.8981 7.97446 12.897 7.97107 12.895C7.96767 12.893 7.96489 12.8901 7.96295 12.8867C7.961 12.8832 7.95996 12.8793 7.95997 12.8754V7.07945C7.95984 7.07547 7.96078 7.07153 7.96272 7.06805C7.96467 7.06457 7.96756 7.0617 7.97102 7.05973C7.97449 7.05777 7.9784 7.05678 7.98238 7.05689C7.98636 7.05701 7.99026 7.05822 7.9936 7.06038L10.5031 8.50867L13.0127 9.95335Z" fill="white"/>
</svg>
