<svg width="24" height="24" viewBox="0 0 24 24" fill="none" xmlns="http://www.w3.org/2000/svg">
<path d="M7.05646 2.41795L8.22346 2.06619C9.54596 1.66755 10.959 2.31179 11.5253 3.57161L12.427 5.57733C12.9097 6.65117 12.6553 7.91317 11.7943 8.71612L10.3 10.1096C10.2563 10.1503 10.2286 10.2053 10.222 10.2647C10.1777 10.6618 10.4469 11.4352 11.0671 12.5095C11.5182 13.2908 11.9264 13.8387 12.2739 14.1468C12.516 14.3615 12.6493 14.4079 12.7061 14.391L14.7164 13.7764C15.842 13.4323 17.0618 13.8426 17.7505 14.7971L19.0312 16.5721C19.8373 17.6893 19.6924 19.2306 18.6921 20.1779L17.8057 21.0173C16.8493 21.9231 15.4877 22.2606 14.219 21.9065C11.4649 21.1378 8.9956 18.8137 6.78372 14.9826C4.56877 11.1462 3.79158 7.84173 4.50803 5.06994C4.8359 3.80146 5.80203 2.79607 7.05646 2.41795ZM7.48936 3.85413C6.7367 4.081 6.15702 4.68423 5.9603 5.44532C5.35765 7.77684 6.04651 10.7057 8.08276 14.2326C10.1163 17.7548 12.3052 19.815 14.6223 20.4617C15.3835 20.6742 16.2004 20.4717 16.7743 19.9282L17.6606 19.0888C18.1153 18.6582 18.1812 17.9576 17.8148 17.4498L16.5341 15.6748C16.221 15.241 15.6666 15.0544 15.1549 15.2109L13.1396 15.827C11.9699 16.1757 10.9082 15.2342 9.76811 13.2595C8.9998 11.9288 8.64171 10.9001 8.73128 10.0982C8.77768 9.68273 8.97125 9.29763 9.27697 9.01254L10.7713 7.61909C11.1627 7.25411 11.2783 6.68047 11.0589 6.19237L10.1572 4.18665C9.89977 3.614 9.25749 3.32116 8.65636 3.50236L7.48936 3.85413Z" fill="#1F1F1F"/>
</svg>
