<svg width="36" height="36" viewBox="0 0 36 36" fill="none" xmlns="http://www.w3.org/2000/svg">
<path d="M13.3125 4.5C12.7947 4.5 12.375 4.91973 12.375 5.4375V10.5H9.1875C6.59867 10.5 4.5 12.5987 4.5 15.1875V25.3125C4.5 27.9013 6.59867 30 9.1875 30H26.8125C29.4013 30 31.5 27.9013 31.5 25.3125V15.1875C31.5 12.5987 29.4013 10.5 26.8125 10.5H23.625V5.4375C23.625 4.91973 23.2053 4.5 22.6875 4.5H13.3125ZM21.75 10.5H14.25V6.375H21.75V10.5ZM6.375 15.1875C6.375 13.6342 7.6342 12.375 9.1875 12.375H26.8125C28.3658 12.375 29.625 13.6342 29.625 15.1875V25.3125C29.625 26.8658 28.3658 28.125 26.8125 28.125H9.1875C7.6342 28.125 6.375 26.8658 6.375 25.3125V15.1875Z" fill="white"/>
</svg>
