<svg width="36" height="36" viewBox="0 0 36 36" fill="none" xmlns="http://www.w3.org/2000/svg">
<path d="M15 6C16.2018 6 17.2778 6.53838 18 7.3871C18.7222 6.53838 19.7982 6 21 6H30.9375C32.0766 6 33 6.92341 33 8.0625V27.9375C33 29.0766 32.0766 30 30.9375 30H21C19.7982 30 18.7222 29.4616 18 28.6129C17.2778 29.4616 16.2018 30 15 30H5.0625C3.92341 30 3 29.0766 3 27.9375V8.0625C3 6.92341 3.92341 6 5.0625 6H15ZM17.0625 26.0625V9.9375C17.0625 8.79841 16.1391 7.875 15 7.875H5.0625C4.95895 7.875 4.875 7.95895 4.875 8.0625V27.9375C4.875 28.0411 4.95895 28.125 5.0625 28.125H15C16.1391 28.125 17.0625 27.2016 17.0625 26.0625ZM18.9375 9.9375V26.0625C18.9375 27.2016 19.8609 28.125 21 28.125H30.9375C31.0411 28.125 31.125 28.0411 31.125 27.9375V8.0625C31.125 7.95895 31.0411 7.875 30.9375 7.875H21C19.8609 7.875 18.9375 8.79841 18.9375 9.9375Z" fill="white"/>
</svg>
