<svg width="36" height="36" viewBox="0 0 36 36" fill="none" xmlns="http://www.w3.org/2000/svg">
<path d="M27.375 4.875C27.9445 4.875 28.4152 5.29823 28.4897 5.84734L28.5 6V30C28.5 30.6213 27.9963 31.125 27.375 31.125C26.8055 31.125 26.3348 30.7018 26.2603 30.1527L26.25 30V22.5H22.875C22.3055 22.5 21.8348 22.0768 21.7603 21.5277L21.75 21.375V10.5C21.75 7.3934 24.2684 4.875 27.375 4.875ZM18.375 4.875C18.9445 4.875 19.4152 5.29823 19.4897 5.84734L19.5 6V12C19.5 14.9289 17.4014 17.3676 14.6259 17.8945L14.625 30C14.625 30.6213 14.1213 31.125 13.5 31.125C12.9305 31.125 12.4598 30.7018 12.3853 30.1527L12.375 30L12.3756 17.8948C9.69848 17.3873 7.65082 15.1012 7.50797 12.3119L7.5 12V6C7.5 5.37868 8.00368 4.875 8.625 4.875C9.19454 4.875 9.66524 5.29823 9.73973 5.84734L9.75 6V12C9.75 13.6793 10.8539 15.1009 12.3756 15.5785L12.375 6C12.375 5.37868 12.8787 4.875 13.5 4.875C14.0695 4.875 14.5402 5.29823 14.6147 5.84734L14.625 6L14.6259 15.5781C16.0623 15.1265 17.1261 13.8338 17.2399 12.2773L17.25 12V6C17.25 5.37868 17.7537 4.875 18.375 4.875ZM26.25 20.25V7.31704C25.0163 7.75311 24.1118 8.88615 24.0096 10.2431L24 10.5V20.25H26.25V7.31704V20.25Z" fill="white"/>
</svg>
