<svg width="36" height="36" viewBox="0 0 36 36" fill="none" xmlns="http://www.w3.org/2000/svg">
<path d="M23.625 15.75C23.625 15.1287 23.1213 14.625 22.5 14.625C21.8787 14.625 21.375 15.1287 21.375 15.75V19.125C21.375 19.7463 21.8787 20.25 22.5 20.25C23.1213 20.25 23.625 19.7463 23.625 19.125V15.75ZM18 14.625C18.6213 14.625 19.125 15.1287 19.125 15.75V19.125C19.125 19.7463 18.6213 20.25 18 20.25C17.3787 20.25 16.875 19.7463 16.875 19.125V15.75C16.875 15.1287 17.3787 14.625 18 14.625ZM14.625 15.75C14.625 15.1287 14.1213 14.625 13.5 14.625C12.8787 14.625 12.375 15.1287 12.375 15.75V19.125C12.375 19.7463 12.8787 20.25 13.5 20.25C14.1213 20.25 14.625 19.7463 14.625 19.125V15.75ZM9 22.5C9.62132 22.5 10.125 23.0037 10.125 23.625V27C10.125 27.6213 9.62132 28.125 9 28.125C8.37868 28.125 7.875 27.6213 7.875 27V23.625C7.875 23.0037 8.37868 22.5 9 22.5ZM28.125 23.625C28.125 23.0037 27.6213 22.5 27 22.5C26.3787 22.5 25.875 23.0037 25.875 23.625V27C25.875 27.6213 26.3787 28.125 27 28.125C27.6213 28.125 28.125 27.6213 28.125 27V23.625ZM18 2.25H23.2504C23.6646 2.25 24.0004 2.58579 24.0004 3V6C24.0004 6.41421 23.6646 6.75 23.2504 6.75H19.125V7.93679C24.1874 8.49642 28.125 12.7884 28.125 18L30.375 18C32.239 18 33.75 19.511 33.75 21.375V31.5C33.75 32.1213 33.2463 32.625 32.625 32.625H3.375C2.75368 32.625 2.25 32.1213 2.25 31.5V21.375C2.25 19.511 3.76104 18 5.625 18L7.875 18C7.875 12.7884 11.8126 8.49642 16.875 7.93679V3.375C16.875 2.75368 17.3787 2.25 18 2.25ZM18 10.125C13.6508 10.125 10.125 13.6508 10.125 18V19.125C10.125 19.7463 9.62132 20.25 9 20.25H5.625C5.00368 20.25 4.5 20.7537 4.5 21.375V30.375H14.0625V27C14.0625 26.3787 14.5662 25.875 15.1875 25.875H20.8125C21.4338 25.875 21.9375 26.3787 21.9375 27V30.375H31.5V21.375C31.5 20.7537 30.9963 20.25 30.375 20.25H27C26.3787 20.25 25.875 19.7463 25.875 19.125V18C25.875 13.6508 22.3492 10.125 18 10.125ZM19.6875 28.125H16.3125V30.375H19.6875V28.125Z" fill="white"/>
</svg>
