<svg width="36" height="36" viewBox="0 0 36 36" fill="none" xmlns="http://www.w3.org/2000/svg">
<path d="M12 9C12 9.82843 11.3284 10.5 10.5 10.5C9.67157 10.5 9 9.82843 9 9C9 8.17157 9.67157 7.5 10.5 7.5C11.3284 7.5 12 8.17157 12 9ZM10.5 15C11.3284 15 12 14.3284 12 13.5C12 12.6716 11.3284 12 10.5 12C9.67157 12 9 12.6716 9 13.5C9 14.3284 9.67157 15 10.5 15ZM12 18C12 18.8284 11.3284 19.5 10.5 19.5C9.67157 19.5 9 18.8284 9 18C9 17.1716 9.67157 16.5 10.5 16.5C11.3284 16.5 12 17.1716 12 18ZM12 22.5C12 23.3284 11.3284 24 10.5 24C9.67157 24 9 23.3284 9 22.5C9 21.6716 9.67157 21 10.5 21C11.3284 21 12 21.6716 12 22.5ZM10.5 28.5C11.3284 28.5 12 27.8284 12 27C12 26.1716 11.3284 25.5 10.5 25.5C9.67157 25.5 9 26.1716 9 27C9 27.8284 9.67157 28.5 10.5 28.5ZM21 24C21.8284 24 22.5 23.3284 22.5 22.5C22.5 21.6716 21.8284 21 21 21C20.1716 21 19.5 21.6716 19.5 22.5C19.5 23.3284 20.1716 24 21 24ZM25.5 24C26.3284 24 27 23.3284 27 22.5C27 21.6716 26.3284 21 25.5 21C24.6716 21 24 21.6716 24 22.5C24 23.3284 24.6716 24 25.5 24ZM25.5 19.5C26.3284 19.5 27 18.8284 27 18C27 17.1716 26.3284 16.5 25.5 16.5C24.6716 16.5 24 17.1716 24 18C24 18.8284 24.6716 19.5 25.5 19.5ZM22.5 18C22.5 18.8284 21.8284 19.5 21 19.5C20.1716 19.5 19.5 18.8284 19.5 18C19.5 17.1716 20.1716 16.5 21 16.5C21.8284 16.5 22.5 17.1716 22.5 18ZM25.5 15C26.3284 15 27 14.3284 27 13.5C27 12.6716 26.3284 12 25.5 12C24.6716 12 24 12.6716 24 13.5C24 14.3284 24.6716 15 25.5 15ZM22.5 13.5C22.5 14.3284 21.8284 15 21 15C20.1716 15 19.5 14.3284 19.5 13.5C19.5 12.6716 20.1716 12 21 12C21.8284 12 22.5 12.6716 22.5 13.5ZM21 7.5V6.375C21 4.51104 19.489 3 17.625 3H7.875C6.01104 3 4.5 4.51104 4.5 6.375V31.125C4.5 31.7463 5.00368 32.25 5.625 32.25H30.375C30.9963 32.25 31.5 31.7463 31.5 31.125V10.875C31.5 9.01104 29.989 7.5 28.125 7.5H21ZM6.75 6.375C6.75 5.75368 7.25368 5.25 7.875 5.25H17.625C18.2463 5.25 18.75 5.75368 18.75 6.375V7.5H18.375C16.511 7.5 15 9.01104 15 10.875V30H6.75V6.375ZM21.75 30V27.75H24.75V30H21.75ZM27 26.625C27 26.0037 26.4963 25.5 25.875 25.5H20.625C20.0037 25.5 19.5 26.0037 19.5 26.625V30H17.25V10.875C17.25 10.2537 17.7537 9.75 18.375 9.75H28.125C28.7463 9.75 29.25 10.2537 29.25 10.875V30H27V26.625Z" fill="white"/>
</svg>
